<svg id="logo.svg" xmlns="http://www.w3.org/2000/svg" width="198.25" height="39.688" viewBox="0 0 198.25 39.688">
  <defs>
    <style>
      .cls-1 {
        fill: #4b4b4b;
      }

      .cls-1, .cls-2, .cls-3 {
        fill-rule: evenodd;
      }

      .cls-2 {
        fill: #fff;
      }

      .cls-3 {
        fill: #f22;
      }
    </style>
  </defs>
  <path id="立川キャンパス15班" class="cls-1" d="M10.32,3.5V0.535a0.548,0.548,0,0,0,.56-0.4L7.8-.025V3.5H0.638V5.856H17.682V3.5H10.32Zm2.24,2.981a46.8,46.8,0,0,1-2.1,8.2l2.24,0.66a48.635,48.635,0,0,0,2.481-7.782,0.725,0.725,0,0,0,.64-0.34Zm-9.442.7a33.622,33.622,0,0,1,1.42,7.8c2.4-.62,2.441-0.62,2.5-0.62a34.449,34.449,0,0,0-1.62-7.782ZM-0.022,18.059H18.262V15.638H-0.022v2.421Zm34.783,0.72h2.48V1.475a0.548,0.548,0,0,0,.56-0.4l-3.041-.16V18.779ZM21.938,7.917c0,3.341-.28,6.741-2.581,9.362a10.244,10.244,0,0,1,2.02,1.7c2.661-3.041,2.961-7.142,2.961-11.042V1.515c0.36-.06.52-0.16,0.54-0.38l-2.941-.16V7.917ZM28.2,16.878h2.4V2.355a0.509,0.509,0,0,0,.54-0.38L28.2,1.815V16.878Zm29.342-5.6-0.28-2.32-7.061.88L49.8,6.356l5.561-.72-0.28-2.381L49.52,4l-0.3-2.921a0.543,0.543,0,0,0,.52-0.5l-3.181.12,0.42,3.621-5.741.76,0.28,2.341,5.721-.74,0.42,3.5-7.041.9,0.28,2.341,7.021-.92,0.64,5.781,2.6-.28-0.68-5.821ZM74.281,6.516l-0.2.12L68.32,7.876l-0.74-3.3a0.567,0.567,0,0,0,.4-0.48l-2.621.28L66.3,8.337l-4.141.9,0.46,1.88,4.061-.94,1.8,8.082,2.04-.42L68.7,9.717l4.061-.88A14.713,14.713,0,0,1,70.3,12.157a8.717,8.717,0,0,1,1.66,1.16,18.292,18.292,0,0,0,3.581-5.481,0.5,0.5,0,0,0,.32-0.2Zm7.037-2.441a29.213,29.213,0,0,1,5.721,2.741l1.32-2.28A25.954,25.954,0,0,0,82.5,1.9ZM83.639,18a0.7,0.7,0,0,0,.34-0.52c6.621-2.341,11.4-6.6,13.883-12.063a15.136,15.136,0,0,1-2.341-1.48c-2.32,5.5-6.961,9.422-13.7,11.5ZM114.421,2a2.171,2.171,0,0,0,4.341,0A2.171,2.171,0,1,0,114.421,2Zm2.18,1.42A1.43,1.43,0,1,1,118.022,2,1.426,1.426,0,0,1,116.6,3.416Zm1.781,12.443a75.947,75.947,0,0,0-5.2-12.623l-2.4,1.12A83.531,83.531,0,0,1,115.7,17.018Zm-14.3-12.483c-0.56,5-2.1,9.642-4.341,12.463a13.744,13.744,0,0,1,2.46,1.3c2.281-3.041,3.881-8.022,4.621-12.723a0.629,0.629,0,0,0,.58-0.38Zm29.062-1.62-0.42.14H122.258V4.3h9.022a25.927,25.927,0,0,1-10.842,11.682,12.912,12.912,0,0,1,1.86,1.92,32.809,32.809,0,0,0,7.082-6.121,63.24,63.24,0,0,1,6.1,6.141l2.221-1.96A80.426,80.426,0,0,0,131.02,9.8a32.338,32.338,0,0,0,3.741-6.621,0.6,0.6,0,0,0,.36-0.34ZM146.939,17V1.875h-2.48l-3.681,1.88,0.64,2.12,2.6-1.36h0.04V17h2.88ZM153.1,1.855l-0.92,7.582a13.647,13.647,0,0,1,1.7-.1c2.561,0,3.9,1.02,3.9,2.841a2.755,2.755,0,0,1-2.961,2.721,6.5,6.5,0,0,1-2.86-.7l-0.58,2.241a8.154,8.154,0,0,0,3.6.78c3.561,0,5.782-2.38,5.782-5.281,0-3.261-2.481-4.741-5.121-4.741a5.535,5.535,0,0,0-.841.06L155.2,4.3h5.142V1.855H153.1Zm13.6,12.4V9.917h1.541V7.776H166.7V3.416h1.781V1.235h-5.822v2.18h1.861V7.776h-1.661v2.14h1.661v4.741c-0.82.16-1.58,0.3-2.221,0.4l0.58,2.481a0.448,0.448,0,0,0,.361-0.34c1.3-.3,3.36-0.78,5.341-1.28l-0.18-2Zm2.241-11.6v9.522h1.98V3.135a0.487,0.487,0,0,0,.5-0.34Zm3.16-2.7V8.7c0,3.441-.42,6.461-3.7,8.442a7.65,7.65,0,0,1,1.48,1.72c3.841-2.36,4.341-6.021,4.341-10.142V0.455a0.451,0.451,0,0,0,.5-0.34ZM178.921,10.5h1.92V8.357h-1.92V3.376h2.16V1.2H174.64v2.18h2V8.357h-1.76V10.5h1.76v5.461h-3.18v2.22H181.4v-2.22h-2.48V10.5Z"/>
  <path id="人員_続出チーム" data-name="人員　　続出チーム" class="cls-2" d="M39.46,35.94l-0.12-.14-2.68-1.06H36.54a1.447,1.447,0,0,1,.4,1,0.233,0.233,0,0,1-.11.21q-0.11.07-.23,0.14c-0.08.047-.157,0.1-0.23,0.15a0.258,0.258,0,0,0-.11.22,1.317,1.317,0,0,0,.07.44,1.327,1.327,0,0,1,.07.44,2.089,2.089,0,0,1-.12.7,1.163,1.163,0,0,1-.42.56,2.083,2.083,0,0,1-.83-1.02,3.82,3.82,0,0,1-.23-1.34,1.606,1.606,0,0,1,.05-0.41q0.05-.19.12-0.39a3.86,3.86,0,0,0,.12-0.42,2.278,2.278,0,0,0,.05-0.5,3.351,3.351,0,0,1,.62.05,3.066,3.066,0,0,0,.58.05,0.081,0.081,0,0,0,.06-0.02,5.263,5.263,0,0,0-.64-0.65q-0.4-.35-0.83-0.71t-0.83-.69a5.2,5.2,0,0,1-.64-0.61,8.7,8.7,0,0,1-1.29-2.01,14.865,14.865,0,0,1-.87-2.36,16.747,16.747,0,0,1-.49-2.49,20.332,20.332,0,0,1-.15-2.4V21.94a2.783,2.783,0,0,0,.36-0.34,0.667,0.667,0,0,0,.18-0.46V21q-0.96-.16-1.94-0.28a15.951,15.951,0,0,0-1.94-.12,1.086,1.086,0,0,0-.15.01,0.161,0.161,0,0,0-.11.13q-0.02,2.04-.09,3.8a31.8,31.8,0,0,1-.3,3.33A19.8,19.8,0,0,1,26,30.86a15.988,15.988,0,0,1-1.17,2.79,17.3,17.3,0,0,1-1.82,2.72,27.389,27.389,0,0,1-2.61,2.77,0.08,0.08,0,0,0-.02.06,0.116,0.116,0,0,0,.02.08l0.26,0.26h0.06a2.9,2.9,0,0,0,1.22-.37,12.61,12.61,0,0,0,1.58-.96q0.84-.59,1.69-1.32a20.242,20.242,0,0,0,1.53-1.45,11.249,11.249,0,0,0,1.11-1.35,2,2,0,0,0,.43-1.01A0.117,0.117,0,0,0,28.26,33a0.536,0.536,0,0,0-.06-0.13,0.522,0.522,0,0,1-.06-0.13,1.764,1.764,0,0,1-.09-0.23A1.163,1.163,0,0,1,28,32.34a0.111,0.111,0,0,1,.1-0.12,0.88,0.88,0,0,1,.16-0.02,0.192,0.192,0,0,1,.18.07,0.168,0.168,0,0,0,.16.07h0.06a4.892,4.892,0,0,0,.4-0.91q0.16-.49.31-0.99t0.32-.98a3.281,3.281,0,0,1,.45-0.86,0.879,0.879,0,0,1,.42.54,4.9,4.9,0,0,1,.18.84q0.06,0.46.08,0.92a3.071,3.071,0,0,0,.12.78,16.418,16.418,0,0,0,1.61,3.83,10.375,10.375,0,0,0,2.79,3.09c0.013,0.013.08,0.067,0.2,0.16a5.081,5.081,0,0,0,.42.29q0.24,0.15.48,0.27a0.518,0.518,0,0,0,.36.08,0.712,0.712,0,0,0,.41-0.37q0.23-.35.46-0.79t0.46-.84a1.593,1.593,0,0,1,.41-0.52l-0.28-.28V36.48l0.16-.35a1.12,1.12,0,0,1,.14-0.23,0.217,0.217,0,0,1,.16-0.1H38.8a2.2,2.2,0,0,0,.27.08,1.908,1.908,0,0,0,.27.06h0.12ZM27.74,21.28a0.766,0.766,0,0,1-.08-0.14A0.629,0.629,0,0,1,27.6,21l-0.02-.24a3.363,3.363,0,0,1,.35.19q0.33,0.19.7,0.44t0.68,0.49a0.676,0.676,0,0,1,.31.36,3.723,3.723,0,0,1-.09.82,2.05,2.05,0,0,1-.33.74,1.054,1.054,0,0,0-.28-0.5,0.827,0.827,0,0,0-.42-0.2,2.061,2.061,0,0,0-.54-0.01q-0.3.03-.62,0.05a0.4,0.4,0,0,1-.13-0.25C27.2,22.8,27.2,22.707,27.2,22.6a0.6,0.6,0,0,1,.06-0.34,1.748,1.748,0,0,1,.19-0.3,2.816,2.816,0,0,0,.2-0.29,0.629,0.629,0,0,0,.09-0.33V21.28Zm1.31,2.91a0.078,0.078,0,0,1-.11.01q-0.06-.02.02-0.1c0.053-.053.087-0.06,0.1-0.02A0.079,0.079,0,0,1,29.05,24.19ZM28.1,26.74c0-.026,0-0.073.01-0.14a0.243,0.243,0,0,1,.03-0.12,0.551,0.551,0,0,1,.04-0.12q0.04-.1.09-0.22t0.09-.21a0.378,0.378,0,0,0,.04-0.13,0.283,0.283,0,0,0-.07-0.24c-0.06-.066-0.127-0.133-0.2-0.2s-0.143-.136-0.21-0.21a0.385,0.385,0,0,1-.1-0.27,0.77,0.77,0,0,1,.44.11,1.672,1.672,0,0,1,.28.24,1.847,1.847,0,0,0,.27.24,0.717,0.717,0,0,0,.43.11,0.627,0.627,0,0,1-.14.3,3.4,3.4,0,0,1-.32.39q-0.18.19-.34,0.33a0.874,0.874,0,0,1-.18.14H28.1Zm3.1,1.2a0.336,0.336,0,0,1-.14-0.14V27.68a0.188,0.188,0,0,1,.14.12v0.14Zm0.2,0.74c0-.053.02-0.08,0.06-0.08a0.071,0.071,0,0,1,0,.14Q31.4,28.76,31.4,28.68Zm-3.94,1.8a0.154,0.154,0,0,1,.18-0.15c0.12-.006.193-0.01,0.22-0.01a1.083,1.083,0,0,1,.47.1,0.381,0.381,0,0,1,.21.38,0.431,0.431,0,0,1-.12.28,1.238,1.238,0,0,1-.3.25,2.239,2.239,0,0,1-.36.18,0.859,0.859,0,0,1-.3.07v-1.1ZM26.54,33.4c-0.027-.027-0.073-0.077-0.14-0.15s-0.137-.153-0.21-0.24-0.14-.166-0.2-0.24-0.1-.13-0.13-0.17V32.48a0.459,0.459,0,0,1,.04-0.19,0.157,0.157,0,0,1,.16-0.09,0.4,0.4,0,0,1,.16.16q0.12,0.16.25,0.37t0.23,0.41a0.83,0.83,0,0,1,.1.26,0.124,0.124,0,0,1-.14.14Zm5.86-.12a0.242,0.242,0,0,1,.14-0.14,0.151,0.151,0,0,1,.14.17v0.23l-0.02.26a0.628,0.628,0,0,1-.26-0.46V33.28Zm0.96,0.26c0-.093.033-0.14,0.1-0.14s0.1,0.047.1,0.14-0.033.14-.1,0.14S33.36,33.633,33.36,33.54Zm1.44,0.8a0.363,0.363,0,0,1-.31-0.12c-0.06-.08-0.117-0.163-0.17-0.25a0.761,0.761,0,0,0-.23-0.23,0.753,0.753,0,0,0-.49-0.06l0.94-.14a0.216,0.216,0,0,0,.06.04,0.164,0.164,0,0,1,.06.1,2.261,2.261,0,0,1,.14.32q0.1,0.26.14,0.34H34.8Zm-2.26.54H32.4V34.74h0.14v0.14Zm-7.8.49a0.3,0.3,0,0,1-.22-0.29,0.179,0.179,0,0,1,.09-0.17,0.387,0.387,0,0,1,.19-0.05,0.246,0.246,0,0,1,.29.2,2.7,2.7,0,0,1,.03.4A1.031,1.031,0,0,1,24.74,35.37ZM39.6,36.08l-0.54.52a0.115,0.115,0,0,0,.08.02,0.492,0.492,0,0,0,.31-0.12,0.369,0.369,0,0,0,.15-0.3V36.08ZM24,37.63a1.023,1.023,0,0,1-.34.05,0.492,0.492,0,0,1-.27-0.07,0.454,0.454,0,0,0-.25-0.07,0.2,0.2,0,0,0-.22.15,2.205,2.205,0,0,0-.06.32,1.626,1.626,0,0,1-.07.32,0.231,0.231,0,0,1-.25.15,0.329,0.329,0,0,1-.33-0.21,1.038,1.038,0,0,1-.09-0.41,0.08,0.08,0,0,1,.02-0.06,3.554,3.554,0,0,1,.31-0.43q0.19-.23.4-0.44t0.41-.4q0.2-.19.34-0.33a0.082,0.082,0,0,1,.06-0.02,0.24,0.24,0,0,1,.14.16q0.08,0.16.16,0.36a3.171,3.171,0,0,1,.13.4,1.456,1.456,0,0,1,.05.26A0.25,0.25,0,0,1,24,37.63ZM35.6,36.6a0.188,0.188,0,0,0-.14-0.12c0-.013-0.02-0.02-0.06-0.02s-0.06.007-.06,0.02a0.188,0.188,0,0,0-.14.12v0.14a0.336,0.336,0,0,0,.14.14h0.12a0.337,0.337,0,0,0,.14-0.14V36.6Zm22.8,0.68a0.7,0.7,0,0,0-.31-0.48,5.942,5.942,0,0,0-.7-0.5,7.192,7.192,0,0,0-.76-0.41q-0.37-.17-0.49-0.21a0.115,0.115,0,0,1-.02-0.08,0.082,0.082,0,0,1,.02-0.06,0.149,0.149,0,0,1,.05-0.07l0.07-.07a0.763,0.763,0,0,0,.15-0.06c0.087-.04.177-0.083,0.27-0.13s0.177-.09.25-0.13A0.8,0.8,0,0,0,57.06,35a0.081,0.081,0,0,0,.06-0.02,0.235,0.235,0,0,1,.06-0.04,0.308,0.308,0,0,0,.08-0.06V28.34l0.6-.4a0.361,0.361,0,0,0,.09-0.07A0.147,0.147,0,0,0,58,27.8V27.68a2.012,2.012,0,0,0-.49-0.41q-0.33-.21-0.67-0.44a5.016,5.016,0,0,1-.6-0.47,0.672,0.672,0,0,1-.26-0.48A0.116,0.116,0,0,1,56,25.8l0.26-.26q0-.12.01-0.42t0.03-.64q0.02-.34.05-0.65t0.05-.43a0.8,0.8,0,0,1,.05-0.21A0.544,0.544,0,0,1,56.54,23a0.608,0.608,0,0,1,.33-0.22,0.278,0.278,0,0,0,.21-0.3,0.948,0.948,0,0,0-.33-0.52,6.567,6.567,0,0,0-.77-0.67,7.829,7.829,0,0,0-.89-0.58,1.61,1.61,0,0,0-.69-0.25,0.45,0.45,0,0,0-.14.02L53.2,21.54a0.556,0.556,0,0,1-.14.09,0.481,0.481,0,0,1-.12.05H46.4a1.152,1.152,0,0,1-.17-0.05A1.764,1.764,0,0,1,46,21.54l-1.6-.66H44.14a1.218,1.218,0,0,0,.23.81,0.967,0.967,0,0,0,.46.27q0.25,0.06.45,0.1a0.247,0.247,0,0,1,.2.28,0.425,0.425,0,0,1-.33.43,1.843,1.843,0,0,1-.57.11,0.458,0.458,0,0,1-.27-0.21,4.282,4.282,0,0,1-.6-1.02,1.229,1.229,0,0,1-.11-0.37,0.733,0.733,0,0,1,.1-0.36,0.323,0.323,0,0,1,.3-0.18,0.712,0.712,0,0,0-.2-0.02c-0.04,0-.117.007-0.23,0.02a0.152,0.152,0,0,0-.17.14v4.8a0.1,0.1,0,0,1-.09.11,1.871,1.871,0,0,1-.21.01,1.971,1.971,0,0,0-.21.01,0.108,0.108,0,0,0-.09.13V33.8a2.48,2.48,0,0,0,.46-0.3,0.61,0.61,0,0,0,.22-0.5,0.808,0.808,0,0,0-.21-0.5q-0.21-.26-0.33-0.42h0.12a0.471,0.471,0,0,1,.42.21,1.89,1.89,0,0,1,.22.45q0.08,0.24.17,0.45a0.291,0.291,0,0,0,.27.21h1.2a0.216,0.216,0,0,0,.06.04,0.164,0.164,0,0,1,.06.1,0.083,0.083,0,0,1,.02.06,0.117,0.117,0,0,1-.02.08,0.475,0.475,0,0,1-.12.13l-0.14.13a3.143,3.143,0,0,1-.24.32q-0.18.22-.38,0.48t-0.36.49q-0.16.23-.22,0.31a1.242,1.242,0,0,1-.59.28,3.63,3.63,0,0,1-.65.06,0.563,0.563,0,0,0,.04.19,0.183,0.183,0,0,0,.14.13l0.46,0.02a4.029,4.029,0,0,0,1.53-.28A2.951,2.951,0,0,0,46.14,35v0.08a1.229,1.229,0,0,1-.45.84,8.054,8.054,0,0,1-1.04.85,12.463,12.463,0,0,1-1.16.72l-0.83.45q-0.12.06-.42,0.22t-0.64.33l-0.64.32a3.923,3.923,0,0,1-.42.19l-0.14.14a0.337,0.337,0,0,1,.14.14V39.4a0.339,0.339,0,0,1-.14.14h0.54a7.1,7.1,0,0,0,1.14-.17q0.84-.17,1.92-0.43t2.26-.59q1.18-.33,2.16-0.65t1.62-.59a1,1,0,0,0,.64-0.43,0.471,0.471,0,0,0-.22-0.41,2.044,2.044,0,0,0-.54-0.25q-0.32-.1-0.7-0.18t-0.7-.18a2.023,2.023,0,0,1-.54-0.25A0.47,0.47,0,0,1,47.76,35h6.08a0.224,0.224,0,0,0,.02.07,0.065,0.065,0,0,1,0,.07l-0.06.12a0.31,0.31,0,0,1-.06.08H51.2a0.443,0.443,0,0,0-.12.13,1.407,1.407,0,0,0-.14.21c-0.013,0-.02.02-0.02,0.06s0.007,0.06.02,0.06a0.145,0.145,0,0,0,.05.07l0.07,0.07q0.08,0.04.33,0.18t0.54,0.29q0.29,0.15.55,0.29t0.32,0.18a9.842,9.842,0,0,1,.98.68q0.6,0.46,1.25.93t1.25,0.83a2.062,2.062,0,0,0,.98.36,1.541,1.541,0,0,0,1.03-.33,1.2,1.2,0,0,0,.39-0.97q0-.16.01-0.43a0.49,0.49,0,0,0-.15-0.41q0,0.12.02,0.43a2.9,2.9,0,0,1-.03.63,1.57,1.57,0,0,1-.2.57,0.509,0.509,0,0,1-.47.25,0.282,0.282,0,0,1-.12-0.02,2.653,2.653,0,0,0-.21-0.66,1.765,1.765,0,0,0-.47-0.54,0.548,0.548,0,0,0,.33-0.17,4.114,4.114,0,0,0,.28-0.31c0.087-.107.17-0.207,0.25-0.3a0.321,0.321,0,0,1,.22-0.14,0.4,0.4,0,0,1,.14.05,0.638,0.638,0,0,1,.12.07V37.28ZM54.26,22.14a0.315,0.315,0,0,1,.12-0.23,1.16,1.16,0,0,1,.29-0.19,2.4,2.4,0,0,1,.34-0.13,1.026,1.026,0,0,1,.27-0.05h0.06a0.188,0.188,0,0,1,.12.14c0.013,0,.02.02,0.02,0.06a0.082,0.082,0,0,1-.02.06,1.707,1.707,0,0,1-.57.29,2.893,2.893,0,0,1-.63.11V22.14Zm-4.92-.06H49.06a0.283,0.283,0,0,1,.28-0.18v0.18Zm3.72,2.64q-0.16.02-.6,0.05t-0.93.05q-0.49.02-.92,0.03T50,24.86q-0.18,0-.66-0.01t-1.01-.03q-0.53-.02-1.01-0.05t-0.66-.05V22.74h6.4v1.98Zm2.68-.92a0.656,0.656,0,0,0,.13.14,0.7,0.7,0,0,1,.13.14,0.7,0.7,0,0,1-.58.28q0-.1.02-0.33a0.211,0.211,0,0,1,.22-0.23h0.08Zm-1.18,1.05c0-.087.033-0.13,0.1-0.13a0.1,0.1,0,0,1,.1.13c0,0.087-.033.13-0.1,0.13S54.56,24.937,54.56,24.85Zm-4.42.541a0.269,0.269,0,0,1-.18-0.26h0.18v0.26Zm-3.34.149q-0.06.02-.21,0.09t-0.32.14a3.358,3.358,0,0,1-.34.12,1.013,1.013,0,0,1-.27.05,0.157,0.157,0,0,1-.16-0.09,0.458,0.458,0,0,1-.04-0.19,0.28,0.28,0,0,1,.09-0.22,0.586,0.586,0,0,1,.23-0.12,1.413,1.413,0,0,1,.29-0.05c0.1-.006.183-0.01,0.25-0.01s0.18,0,.3.01a0.179,0.179,0,0,1,.18.21v0.06Zm7.34,0.94-0.4.4q-0.22,0-.77.02t-1.17.04l-1.17.04Q50.08,27,49.86,27t-0.81-.02l-1.25-.04-1.25-.04q-0.59-.02-0.81-0.02a0.287,0.287,0,0,1-.24-0.08,0.323,0.323,0,0,1-.06-0.2,0.279,0.279,0,0,1,.02-0.12,0.9,0.9,0,0,0,.19-0.11q0.13-.09.28-0.18t0.28-.16a1.434,1.434,0,0,1,.19-0.09,0.522,0.522,0,0,0,.08-0.05,0.524,0.524,0,0,1,.08-0.05,0.734,0.734,0,0,0,.1-0.04h6.28a0.751,0.751,0,0,0,.51.45,1.98,1.98,0,0,0,.69.09v0.14ZM44,27.68q-0.1.04-.4,0.13t-0.4.13H43.06a0.187,0.187,0,0,1-.12-0.14c-0.013,0-.02-0.02-0.02-0.06a0.256,0.256,0,0,1,.07-0.19,1.4,1.4,0,0,1,.15-0.13,1,1,0,0,0,.15-0.14,0.293,0.293,0,0,0,.07-0.2,0.5,0.5,0,0,0-.08-0.28q-0.08-.12-0.17-0.24a2.489,2.489,0,0,1-.16-0.24,0.543,0.543,0,0,1-.07-0.28,0.9,0.9,0,0,1,.91.44A2.445,2.445,0,0,1,44,27.54v0.14Zm11.02-.7a1.158,1.158,0,0,1-.64.18,3.349,3.349,0,0,1,.02-0.35,1.284,1.284,0,0,1,.09-0.36,0.774,0.774,0,0,1,.19-0.28A0.456,0.456,0,0,1,55,26.06a0.634,0.634,0,0,1,.49.24,0.754,0.754,0,0,1,.21.5A1.231,1.231,0,0,0,55.02,26.98Zm-4.62.5a0.168,0.168,0,0,1,.11-0.19,0.869,0.869,0,0,1,.23-0.03c0.053,0,.117,0,0.19.01a0.137,0.137,0,0,1,.13.13,0.566,0.566,0,0,1-.18.18,0.432,0.432,0,0,1-.22.1,0.472,0.472,0,0,1-.12-0.05,0.545,0.545,0,0,1-.14-0.09V27.48Zm-0.66-.08a0.337,0.337,0,0,1-.14.14V27.4a0.188,0.188,0,0,1,.14-0.12V27.4Zm7.69,0.55a1.232,1.232,0,0,1-.39.07,3.332,3.332,0,0,1,.03-0.4,0.235,0.235,0,0,1,.25-0.24,0.476,0.476,0,0,1,.42.3A0.517,0.517,0,0,1,57.43,27.95Zm-9.27-.41c0-.093.033-0.14,0.1-0.14s0.1,0.047.1,0.14-0.033.14-.1,0.14S48.16,27.633,48.16,27.54Zm7.5,0.51a0.466,0.466,0,0,1-.38.17,1.375,1.375,0,0,1-.39-0.08,0.3,0.3,0,0,1-.25-0.28,1.383,1.383,0,0,0,.58-0.11,1.388,1.388,0,0,1,.58-0.11A0.625,0.625,0,0,1,55.66,28.05Zm-1.8,1.09H46v-1.2h7.86v1.2ZM46,31.54v-1.4h5.86a1.3,1.3,0,0,0-.13-0.17,1.2,1.2,0,0,1-.13-0.17V29.74a0.3,0.3,0,0,1,.16-0.23A0.507,0.507,0,0,1,52,29.4h1.6a0.157,0.157,0,0,1,.09.11,0.459,0.459,0,0,1,.05.17,1.121,1.121,0,0,1-.12.21,0.736,0.736,0,0,1-.16.19,1.434,1.434,0,0,1,.23.1,0.44,0.44,0,0,1,.17.16c0,0.04,0,.12.01,0.24s0.01,0.194.01,0.22l-0.02.48a0.39,0.39,0,0,1-.05.16,0.2,0.2,0,0,1-.07.1H46Zm9.86-1.2h1.08a0.151,0.151,0,0,1,.07.05,0.14,0.14,0,0,1,.05.09l0.02,0.4a0.658,0.658,0,0,1-.18.43,1.778,1.778,0,0,1-.45.37,3.022,3.022,0,0,1-.56.26,1.589,1.589,0,0,1-.51.1,0.654,0.654,0,0,1,.14-0.43,1.586,1.586,0,0,1,.31-0.29q0.17-.12.31-0.24a0.36,0.36,0,0,0,.14-0.28,0.258,0.258,0,0,0-.23-0.23q-0.23-.07-0.31-0.09Zm-11.79.2A0.073,0.073,0,0,1,44,30.48q-0.02-.06.06-0.06c0.053,0,.08.02,0.08,0.06A0.073,0.073,0,0,1,44.07,30.54ZM53.5,31.8a0.265,0.265,0,0,1-.3.3V31.8h0.3Zm0.36,2.14H46v-1.2a0.149,0.149,0,0,1,.05-0.07,0.369,0.369,0,0,1,.09-0.07l0.14-.07a0.49,0.49,0,0,1,.12-0.05h7.06a0.5,0.5,0,0,1,.12.05,1.243,1.243,0,0,0,.16.07l0.07,0.07a0.151,0.151,0,0,1,.05.07v1.2Zm1.2-.46a0.923,0.923,0,0,1,.15-0.47,0.459,0.459,0,0,1,.41-0.25,2.95,2.95,0,0,1-.04.52q-0.04.22-.12,0.52a0.081,0.081,0,0,1-.06.02c-0.04,0-.06-0.006-0.06-0.02a0.705,0.705,0,0,1-.14-0.12l-0.14-.14V33.48Zm-11.2.2c0-.013-0.013-0.02-0.04-0.02a0.266,0.266,0,0,0-.22.1,0.573,0.573,0,0,0-.11.25,1.526,1.526,0,0,0-.03.3v0.25a1.035,1.035,0,0,0,.03.23q0.03,0.13.25,0.09a0.481,0.481,0,0,0,.16-0.12A0.274,0.274,0,0,0,44,34.6Zm6.28,0.92H50V34.48Zm6.46,3.62a1.334,1.334,0,0,1-.64-0.15,5.507,5.507,0,0,1-.54-0.33q-0.26-.18-0.53-0.36a1.593,1.593,0,0,0-.63-0.24q0.06-.16.18-0.45t0.22-.49a2.89,2.89,0,0,1,.55.48q0.25,0.28.49,0.56t0.51,0.54a2.4,2.4,0,0,0,.59.42,0.712,0.712,0,0,1-.2.02h0ZM45.74,37.14a0.307,0.307,0,0,1,.16.2,1.411,1.411,0,0,1,.05.29,1.3,1.3,0,0,1-.01.28,1.391,1.391,0,0,0-.02.19,0.915,0.915,0,0,1-.39-0.1,0.334,0.334,0,0,1-.21-0.32,0.861,0.861,0,0,1,.09-0.34,0.279,0.279,0,0,1,.25-0.2h0.08Zm1.2,0.82a0.341,0.341,0,0,1-.42-0.34,0.4,0.4,0,0,1,.1-0.31,1,1,0,0,1,.32-0.17v0.82Zm72.92-9.08-2-2V26.74A0.711,0.711,0,0,1,118,26.6V25.7a0.766,0.766,0,0,1,.59.25q0.229,0.25.47,0.53h0.14a0.7,0.7,0,0,0,.14-0.14V26.2a12.45,12.45,0,0,0-2.4-2,2.548,2.548,0,0,0-.39.46,5.294,5.294,0,0,1-.41.53,3.209,3.209,0,0,1-.47.44,0.888,0.888,0,0,1-.55.19,1.283,1.283,0,0,1-.29-0.04,0.216,0.216,0,0,1-.17-0.24V24.08a0.247,0.247,0,0,1,.11-0.08,0.4,0.4,0,0,1,.17-0.06c0.053-.013.147-0.03,0.28-0.05s0.28-.037.44-0.05,0.31-.023.45-0.03,0.237-.01.29-0.01V23.68a0.98,0.98,0,0,0-.06-0.21,0.89,0.89,0,0,0-.08-0.19l0.02-.18h0.28a0.968,0.968,0,0,0,.31-0.05,0.625,0.625,0,0,0,.25-0.15,0.406,0.406,0,0,0,.1-0.3,0.464,0.464,0,0,0-.28-0.4h0.12a2.21,2.21,0,0,1,.72.11,2.552,2.552,0,0,1,.6.3,4.6,4.6,0,0,1,.54.43l0.54,0.5h0.14V23.4a0.862,0.862,0,0,0-.31-0.47,7.981,7.981,0,0,0-.72-0.63q-0.409-.32-0.81-0.58a3.622,3.622,0,0,0-.56-0.32,3.391,3.391,0,0,0-.45.51q-0.21.29-.43,0.54a2.657,2.657,0,0,1-.48.43,1.061,1.061,0,0,1-.62.18,2.089,2.089,0,0,1-.22-0.02,0.794,0.794,0,0,1-.2-0.04l-0.14-.12q0-.04-0.03-0.23a2.062,2.062,0,0,1-.03-0.25,0.781,0.781,0,0,1,.1-0.42,1.974,1.974,0,0,1,.21-0.28q0.11-.12.21-0.24a0.482,0.482,0,0,0,.1-0.32,0.4,0.4,0,0,0-.38-0.36,3.8,3.8,0,0,0-.88-0.11q-0.5-.01-0.99.02t-0.69.03l-0.68.02-0.14.14v2.2h-3.72a0.157,0.157,0,0,0-.07.07,0.506,0.506,0,0,0-.07.13V23.4c0.013,0.04.037,0.114,0.07,0.22a0.7,0.7,0,0,0,.07.18,0.092,0.092,0,0,0,.06.1,0.213,0.213,0,0,0,.06.04h1.08a0.359,0.359,0,0,1,.22-0.11c0.147-.046.313-0.093,0.5-0.14s0.367-.087.54-0.12a2.3,2.3,0,0,1,.36-0.05,1.529,1.529,0,0,1,.59.13,0.532,0.532,0,0,1,.31.55v1.54h-2.92a0.292,0.292,0,0,0-.24.14,0.455,0.455,0,0,0-.1.26h1.98a0.31,0.31,0,0,1-.05.21,0.368,0.368,0,0,1-.12.08c-0.047.02-.107,0.044-0.18,0.07a0.6,0.6,0,0,0-.23.18h7.74V27l-0.94.94H110a0.146,0.146,0,0,1-.07-0.05,0.359,0.359,0,0,1-.07-0.09c-0.013-.027-0.04-0.083-0.08-0.17s-0.083-.177-0.13-0.27a1.141,1.141,0,0,0-.169-0.25,0.294,0.294,0,0,0-.219-0.11,0.285,0.285,0,0,0-.279.21,3.661,3.661,0,0,0-.139.47,2.69,2.69,0,0,1-.149.47,0.3,0.3,0,0,1-.288.21,0.335,0.335,0,0,1-.139-0.02,3.652,3.652,0,0,0-.487-0.34q-0.329-.2-0.656-0.41a5.389,5.389,0,0,1-.587-0.43,0.593,0.593,0,0,1-.258-0.42,0.881,0.881,0,0,1,.238-0.48q0.237-.3.525-0.6t0.534-.52c0.166-.146.261-0.233,0.288-0.26a3.187,3.187,0,0,0,.317-0.09,0.261,0.261,0,0,0,.218-0.25V24.48a0.243,0.243,0,0,0-.14-0.14l-2.66-1.06a1.1,1.1,0,0,1-.22-0.1A0.571,0.571,0,0,1,105.2,23a1.168,1.168,0,0,1,.37-0.3l0.5-.28a2.8,2.8,0,0,0,.43-0.29,0.429,0.429,0,0,0,.18-0.33,0.4,0.4,0,0,0-.25-0.24,4.713,4.713,0,0,0-.62-0.28c-0.247-.093-0.513-0.19-0.8-0.29s-0.553-.186-0.8-0.26-0.537-.163-0.87-0.27a0.386,0.386,0,0,0-.36.23,1.982,1.982,0,0,0-.18.57q-0.06.34-.09,0.74t-0.09.74a1.641,1.641,0,0,1-.2.57,0.443,0.443,0,0,1-.4.23,1.384,1.384,0,0,1-.61-0.14,1.389,1.389,0,0,0-.61-0.14,0.834,0.834,0,0,0-.28.05,0.217,0.217,0,0,0-.14.23,1.555,1.555,0,0,0,.18.67q0.18,0.37.41,0.76t0.45,0.78a3.539,3.539,0,0,1,.32.73,0.541,0.541,0,0,0,.25.36,3.212,3.212,0,0,0,.45.25q0.24,0.11.44,0.21a0.29,0.29,0,0,1,.2.24,1.275,1.275,0,0,1-.21.78,1.4,1.4,0,0,1-.52.43,2.454,2.454,0,0,1-.68.21c-0.247.04-.473,0.07-0.68,0.09a2.964,2.964,0,0,0-.52.09,0.228,0.228,0,0,0-.21.2,4.341,4.341,0,0,0,.14,1.11q0.139,0.53.3,1.07t0.28,1.1a4.279,4.279,0,0,1,.08,1.18l0.14-.07a0.394,0.394,0,0,1,.14-0.05,1.461,1.461,0,0,0,.39-0.25l0.48-.4c0.167-.14.323-0.267,0.47-0.38a0.667,0.667,0,0,1,.38-0.17,0.149,0.149,0,0,1,.07.05l0.07,0.07v0.08a0.9,0.9,0,0,1-.28.45,5.4,5.4,0,0,1-.66.61,4.419,4.419,0,0,1-.76.49,0.714,0.714,0,0,1-.56.11l-0.68,3.06v0.22a0.721,0.721,0,0,0,.07.31,0.27,0.27,0,0,0,.27.15,0.865,0.865,0,0,0,.59-0.273,3.759,3.759,0,0,0,.54-0.646,8.883,8.883,0,0,0,.46-0.767q0.21-.394.35-0.614h0.32V39.4a0.2,0.2,0,0,0,.1.18,0.626,0.626,0,0,0,.22.08,1.483,1.483,0,0,0,.24.02h0.16q0.12,0,.48-0.04t0.75-.12a3.523,3.523,0,0,0,.69-0.21,0.391,0.391,0,0,0,.3-0.31V34.06l0.2-.14a1.164,1.164,0,0,1,.31.67q0.03,0.35.08,0.65a0.9,0.9,0,0,0,.25.5,1.157,1.157,0,0,0,.8.2,1.076,1.076,0,0,0,.97-0.408,1.859,1.859,0,0,0,.27-1.045,1.76,1.76,0,0,0-.21-0.886,2.584,2.584,0,0,0-.52-0.647,3.476,3.476,0,0,0-.68-0.478c-0.247-.133-0.473-0.269-0.68-0.408a2.879,2.879,0,0,1-.52-0.439,0.813,0.813,0,0,1-.21-0.57,1.568,1.568,0,0,1,.07-0.48,1.5,1.5,0,0,0,.07-0.46V30.08a1.159,1.159,0,0,0-.13-0.05l-0.18-.06a0.6,0.6,0,0,1-.16-0.08,0.171,0.171,0,0,1-.07-0.15V29.68a1.4,1.4,0,0,1,.072-0.16,0.707,0.707,0,0,1,.072-0.12h0.062a1.414,1.414,0,0,1,.318.07q0.236,0.07.486,0.17a2.725,2.725,0,0,1,.44.22,0.332,0.332,0,0,1,.19.2,0.431,0.431,0,0,1-.14.33,0.391,0.391,0,0,0-.14.29v0.06a5.846,5.846,0,0,0,.61.71,1.157,1.157,0,0,0,.85.35,1.089,1.089,0,0,0,.4-0.07,2.655,2.655,0,0,0,.34-0.16q0.16-.09.33-0.17a0.816,0.816,0,0,1,.35-0.08q0,0.68-.01,1.32t-0.08,1.26a7.214,7.214,0,0,1-.25,1.23,5.225,5.225,0,0,1-.54,1.21,4.384,4.384,0,0,1-.56.7q-0.44.48-.91,0.99l-0.84.91a1.908,1.908,0,0,0-.37.46,0.49,0.49,0,0,0,.05.22,0.183,0.183,0,0,0,.229.06,1.275,1.275,0,0,0,.568-0.18,1.176,1.176,0,0,0,.329-0.32,2.735,2.735,0,0,0,.209-0.38,1.445,1.445,0,0,1,.229-0.36,1.077,1.077,0,0,1,.389-0.27,1.738,1.738,0,0,1,.687-0.11,0.219,0.219,0,0,1,.219.14,0.219,0.219,0,0,0,.219.14,1.277,1.277,0,0,0,.658-0.27,5.267,5.267,0,0,0,.777-0.65,4.245,4.245,0,0,0,.638-0.81,1.5,1.5,0,0,0,.259-0.73V35.8a0.324,0.324,0,0,0-.05-0.1l-0.1-.16a0.905,0.905,0,0,1-.08-0.16,0.423,0.423,0,0,1-.03-0.1,0.26,0.26,0,0,1,.12-0.24A0.652,0.652,0,0,1,111.7,35h0.26a0.192,0.192,0,0,0,.18-0.12,8.08,8.08,0,0,0,.55-1.78,6.388,6.388,0,0,0,.11-1.82,1.546,1.546,0,0,0,.41-0.2q0.21-.14.42-0.27t0.41-.24a0.763,0.763,0,0,1,.36-0.11,0.439,0.439,0,0,1,.37.17c0.087,0.114.183,0.237,0.29,0.37a0.083,0.083,0,0,1,.02.06,0.117,0.117,0,0,1-.02.08,0.163,0.163,0,0,1-.06.1,0.231,0.231,0,0,0-.06.04h-1.48v2a0.129,0.129,0,0,1,.12.08,0.5,0.5,0,0,1,.05.17,0.69,0.69,0,0,1,0,.17c-0.007.053-.01,0.087-0.01,0.1,0,0.107,0,.224-0.01.35a0.492,0.492,0,0,1-.15.33V36q0,0.34-.01.88a4.792,4.792,0,0,0,.09,1.04,2.025,2.025,0,0,0,.38.86,1.046,1.046,0,0,0,.88.36h2.8L118,39a0.332,0.332,0,0,0-.01-0.26,1.332,1.332,0,0,0-.13-0.4,0.946,0.946,0,0,0-.58-0.49,3.857,3.857,0,0,0-.74-0.17,0.454,0.454,0,0,1-.02-0.14,0.744,0.744,0,0,1,.32-0.67,3.159,3.159,0,0,1,.69-0.34q0.37-.13.69-0.27a0.463,0.463,0,0,0,.32-0.44,0.834,0.834,0,0,0-.07-0.34,0.833,0.833,0,0,1-.07-0.34,1.333,1.333,0,0,1,.11-0.52q0.109-.26.24-0.5t0.24-.46a0.943,0.943,0,0,0,.11-0.42,0.583,0.583,0,0,0-.49.22,1.569,1.569,0,0,0-.26.55,6.646,6.646,0,0,0-.15.71q-0.06.38-.13,0.71a1.675,1.675,0,0,1-.21.55,0.447,0.447,0,0,1-.4.22h-0.92V31.14c0.027-.013.093-0.053,0.2-0.12a1.373,1.373,0,0,0,.2-0.14V30.8a0.418,0.418,0,0,0-.08-0.12c-0.053-.067-0.117-0.146-0.19-0.24a2.277,2.277,0,0,1-.19-0.28,0.5,0.5,0,0,1-.08-0.22l-0.26.14H113.6l-0.26.26-0.38.02c-0.173,0-.417-0.017-0.73-0.05s-0.627-.073-0.94-0.12-0.583-.093-0.81-0.14a0.665,0.665,0,0,1-.34-0.11V29a0.2,0.2,0,0,1,.1-0.07,0.392,0.392,0,0,1,.16-0.05,0.529,0.529,0,0,1,.13.06,0.529,0.529,0,0,0,.13.06c0.013,0,.053,0,0.12.01a2.268,2.268,0,0,0,.23.01h0.76A0.613,0.613,0,0,0,112,29l0.14-.12-0.28-.28,0.04-.04a0.531,0.531,0,0,1,.3.08c0.08,0.053.157,0.11,0.23,0.17a1.463,1.463,0,0,0,.24.16,0.691,0.691,0,0,0,.33.07,1.027,1.027,0,0,0,.46-0.09c0.12-.06.243-0.123,0.37-0.19a3.817,3.817,0,0,1,.43-0.19,1.8,1.8,0,0,1,.62-0.09,0.256,0.256,0,0,1,.2.09,2.944,2.944,0,0,0,.21.21,1.507,1.507,0,0,0,.35.23,1.589,1.589,0,0,0,.62.13,0.656,0.656,0,0,0,.2.35,2.628,2.628,0,0,0,.41.35,2.992,2.992,0,0,0,.47.27,1,1,0,0,0,.4.11,0.937,0.937,0,0,0,.52-0.13,0.893,0.893,0,0,0,.31-0.34,1.508,1.508,0,0,0,.15-0.46,3.058,3.058,0,0,0,.04-0.49,0.736,0.736,0,0,1,.31.06,1.846,1.846,0,0,1,.25.14,1.8,1.8,0,0,0,.25.14,0.684,0.684,0,0,0,.29.06V28.88ZM103.7,23.04a0.3,0.3,0,0,1,.34-0.34,0.3,0.3,0,0,1-.34.34h0Zm14.5,0.76a0.667,0.667,0,0,0-.2-0.47,0.6,0.6,0,0,0-.44-0.21,0.863,0.863,0,0,0-.53.19,0.588,0.588,0,0,0-.25.49h1.42ZM104,25.14a0.146,0.146,0,0,1-.07-0.05,0.359,0.359,0,0,1-.07-0.09c-0.04-.053-0.093-0.13-0.16-0.23a0.778,0.778,0,0,1-.1-0.17,0.366,0.366,0,0,1,.11-0.29,1.831,1.831,0,0,1,.31-0.28,1.793,1.793,0,0,1,.38-0.21,0.911,0.911,0,0,1,.3-0.08,2.932,2.932,0,0,1-.03.35,3.075,3.075,0,0,1-.1.47,1.377,1.377,0,0,1-.19.41,0.373,0.373,0,0,1-.32.17H104Zm9.34,0.94-0.28-.14q-0.041-.02-0.15-0.09t-0.24-.16q-0.13-.09-0.24-0.17c-0.073-.053-0.13-0.093-0.17-0.12V25.34a1.035,1.035,0,0,1,.11-0.29c0.073-.153.157-0.313,0.25-0.48s0.18-.32.26-0.46a0.465,0.465,0,0,1,.16-0.21,1.254,1.254,0,0,0,.09.48,4.085,4.085,0,0,0,.2.42q0.11,0.2.2,0.41a1.13,1.13,0,0,1,.09.45,2.122,2.122,0,0,1-.02.27,0.171,0.171,0,0,1-.2.15h-0.06Zm-9.7-.01c0-.087.033-0.13,0.1-0.13s0.1,0.043.1,0.13-0.033.13-.1,0.13S103.64,26.157,103.64,26.07Zm5.3,0.53a1.071,1.071,0,0,0-.2-0.11,0.573,0.573,0,0,0-.2-0.03,0.347,0.347,0,0,0-.14.02V26.6h0.54Zm-5.2,1.6a0.147,0.147,0,0,1-.15-0.13c-0.007-.073-0.01-0.137-0.01-0.19a0.715,0.715,0,0,1,.02-0.2,0.417,0.417,0,0,1,.12.18,0.971,0.971,0,0,1,.02.22V28.2Zm0.66,0.68,0.94-.94h0.06a0.228,0.228,0,0,1,.19.09,0.682,0.682,0,0,1,.11.22,1.2,1.2,0,0,1,.05.26c0.007,0.087.01,0.157,0.01,0.21a0.348,0.348,0,0,1-.16.32,0.938,0.938,0,0,1-.37.13,2.439,2.439,0,0,1-.45.02c-0.16-.007-0.287-0.01-0.38-0.01v-0.3Zm-0.94.26-0.12.14V29Zm4.8,4.8q-0.02.08-.06,0.22c-0.027.093-.053,0.19-0.08,0.29s-0.05.19-.07,0.27a0.955,0.955,0,0,1-.05.16l-0.07.07a0.146,0.146,0,0,1-.07.05,0.389,0.389,0,0,1-.34-0.14,0.767,0.767,0,0,1-.13-0.34,2.689,2.689,0,0,1-.03-0.4,2.076,2.076,0,0,0-.02-0.32,1.8,1.8,0,0,0-.37-0.24q-0.35-.2-0.79-0.47t-0.85-.58a1.684,1.684,0,0,1-.53-0.57,0.383,0.383,0,0,0-.28-0.23,3.383,3.383,0,0,0-.38-0.04,0.986,0.986,0,0,1-.34-0.07,0.333,0.333,0,0,1-.14-0.34,1.178,1.178,0,0,1,.44.08,1.17,1.17,0,0,0,.44.08,0.735,0.735,0,0,0,.47-0.15,0.706,0.706,0,0,1,.45-0.15,0.347,0.347,0,0,1,.14.02,1.085,1.085,0,0,0,.46.87,6.087,6.087,0,0,0,.92.52,5.83,5.83,0,0,1,.9.51,0.957,0.957,0,0,1,.4.84,0.082,0.082,0,0,1-.02.06h0Zm-5.86-1.6c-0.027,0-.08,0-0.16-0.01a2.376,2.376,0,0,1-.27-0.04,0.749,0.749,0,0,1-.26-0.1A0.216,0.216,0,0,1,101.6,32a0.325,0.325,0,0,1,.14-0.28,1,1,0,0,1,.33-0.15,1.9,1.9,0,0,1,.37-0.06c0.12-.006.213-0.01,0.28-0.01a3.355,3.355,0,0,1,.01.43,0.793,0.793,0,0,1-.07.28,0.192,0.192,0,0,1-.18.13H102.4Zm2.14,0.26a0.188,0.188,0,0,1-.18.15c-0.093.007-.167,0.01-0.22,0.01l-0.28-.02a0.173,0.173,0,0,1,.18-0.14h0.5Zm6.24,2.67a0.619,0.619,0,0,0-.33.08,0.709,0.709,0,0,0-.28.43,3.534,3.534,0,0,0-.03,1.22,0.161,0.161,0,0,1-.11.13,1.035,1.035,0,0,1-.15.01,1.118,1.118,0,0,1-.54-0.17,0.485,0.485,0,0,1-.3-0.41,0.815,0.815,0,0,1,.16-0.51,3.246,3.246,0,0,1,.35-0.39q0.191-.18.37-0.36a0.761,0.761,0,0,0,.22-0.42c0-.04-0.007-0.12-0.02-0.24a2.266,2.266,0,0,1-.01-0.37,0.89,0.89,0,0,1,.09-0.35,0.287,0.287,0,0,1,.28-0.16,0.955,0.955,0,0,0,.07.37,3.042,3.042,0,0,0,.16.33c0.06,0.107.113,0.21,0.16,0.31a0.721,0.721,0,0,1,.07.31C110.94,35.213,110.887,35.277,110.78,35.27Zm5.36-1.13a0.652,0.652,0,0,1-.1.3,0.286,0.286,0,0,1-.24.18c-0.04,0-.06-0.007-0.06-0.02a0.643,0.643,0,0,1-.21-0.12c-0.113-.08-0.177-0.127-0.19-0.14l-0.14-.02a0.828,0.828,0,0,0-.52.17,0.857,0.857,0,0,1-.54.17V34.48a0.339,0.339,0,0,1,.27-0.25,3.037,3.037,0,0,1,.6-0.17q0.33-.06.61-0.09c0.187-.02.293-0.03,0.32-0.03H116a0.337,0.337,0,0,1,.14.14v0.06Zm-11.82.84a0.455,0.455,0,0,1-.38.18,0.7,0.7,0,0,1-.2-0.02c0.067-.093.163-0.213,0.29-0.36a0.56,0.56,0,0,1,.43-0.22A0.666,0.666,0,0,1,104.32,34.98Zm14.98,1.23c0-.087-0.033-0.13-0.1-0.13s-0.1.043-.1,0.13,0.033,0.13.1,0.13S119.3,36.3,119.3,36.21Zm0.3,0.39V36.48a0.243,0.243,0,0,0-.14-0.14h-0.12Zm0.2,0.21a0.073,0.073,0,0,0-.06-0.07q-0.06-.02-0.06.06c0,0.053.02,0.08,0.06,0.08A0.073,0.073,0,0,0,119.8,36.81Zm0.16,0.2c0-.087-0.033-0.13-0.1-0.13s-0.1.044-.1,0.13,0.033,0.13.1,0.13S119.96,37.1,119.96,37.01Zm-15.69.81a1.521,1.521,0,0,1-.17.45,1.115,1.115,0,0,1-.31.35,0.741,0.741,0,0,1-.45.14,0.247,0.247,0,0,1-.28-0.28,0.962,0.962,0,0,1,.37-0.9,1.713,1.713,0,0,1,.89-0.22A2.278,2.278,0,0,1,104.27,37.82Zm11.19,0.66a0.181,0.181,0,0,1-.12.12,1.349,1.349,0,0,0-.2-0.1c-0.093-.04-0.19-0.083-0.29-0.13a2.1,2.1,0,0,1-.27-0.15,0.215,0.215,0,0,1-.12-0.16,2.366,2.366,0,0,1,.25.02,2.926,2.926,0,0,1,.34.06,1.218,1.218,0,0,1,.3.11,0.194,0.194,0,0,1,.13.15,0.118,0.118,0,0,1-.02.08h0Zm19.6-7.6a2.391,2.391,0,0,1,.34.05c0.173,0.034.287,0.057,0.34,0.07l0.07,0.07a0.152,0.152,0,0,1,.05.07,0.272,0.272,0,0,1-.18.17c-0.093.034-.19,0.067-0.29,0.1a1.141,1.141,0,0,0-.27.13,0.29,0.29,0,0,0-.12.26v4.94h-3.54V29.4a0.264,0.264,0,0,0,.09-0.12,0.394,0.394,0,0,0,.05-0.14,0.536,0.536,0,0,0-.06-0.13,0.848,0.848,0,0,0-.08-0.13,0.052,0.052,0,0,1,.02-0.05,0.032,0.032,0,0,0,.02-0.03,0.7,0.7,0,0,0,.2-0.08,1.253,1.253,0,0,1,.31-0.11,0.179,0.179,0,0,1,.21.07,0.671,0.671,0,0,1-.08.46H134l0.14-.14a0.149,0.149,0,0,1,.07.05,0.14,0.14,0,0,1,.05.09,0.522,0.522,0,0,1-.06.13,0.536,0.536,0,0,0-.06.13,1.56,1.56,0,0,0-.05.43c-0.007.22-.01,0.364-0.01,0.43h0.27c0.14,0,.287,0,0.44-0.01l0.42-.02a1.145,1.145,0,0,0,.25-0.03,1.008,1.008,0,0,0,.36-0.06,0.3,0.3,0,0,0,.06-0.24,0.5,0.5,0,0,0-.09-0.29,2.306,2.306,0,0,0-.19-0.24l-0.19-.21a0.322,0.322,0,0,1-.09-0.22c0-.04.007-0.06,0.02-0.06a0.189,0.189,0,0,1,.12-0.14h0.08a0.861,0.861,0,0,1,.35.1,1.89,1.89,0,0,1,.4.26,2.027,2.027,0,0,1,.33.35,0.63,0.63,0,0,1,.14.37,0.059,0.059,0,0,1,.04-0.02,0.24,0.24,0,0,0,.09-0.02c0.033-.013.07-0.027,0.11-0.04a0.437,0.437,0,0,0,.14-0.06V23.8a0.288,0.288,0,0,1,.09-0.21,1.382,1.382,0,0,1,.21-0.17,1.358,1.358,0,0,0,.21-0.17,0.311,0.311,0,0,0,.09-0.23,0.525,0.525,0,0,0-.51-0.41,6.319,6.319,0,0,0-1.16-.17q-0.649-.04-1.24-0.02t-0.77.02V28.2h-2.6V21.94q0.079-.08.29-0.33a2.406,2.406,0,0,0,.25-0.33,0.258,0.258,0,0,1,.01-0.06,0.311,0.311,0,0,0,.01-0.08,0.677,0.677,0,0,0-.02-0.16,0.15,0.15,0,0,0-.14-0.1q-0.84-.14-1.54-0.22a13.3,13.3,0,0,0-1.5-.08l-0.56.02-0.2.14V28.2h-2.34V23.68l0.33-.33a0.6,0.6,0,0,0,.21-0.41c0-.04-0.007-0.06-0.02-0.06a0.27,0.27,0,0,0-.12-0.09,0.394,0.394,0,0,0-.14-0.05q-0.14-.02-0.5-0.06t-0.756-.09q-0.4-.05-0.765-0.08c-0.245-.02-0.414-0.03-0.506-0.03l-0.358-.02a1.378,1.378,0,0,0-.308.03,0.216,0.216,0,0,0-.129.25,0.339,0.339,0,0,0,.22.28,0.937,0.937,0,0,1,.32.26,0.257,0.257,0,0,1-.26.16c-0.147.013-.24,0.02-0.28,0.02V26.2c0.133,0.027.22,0.047,0.26,0.06s0.057,0.027.05,0.04a0.276,0.276,0,0,1-.05.06,0.162,0.162,0,0,0-.04.12h-0.22v3.9h0.8a4.851,4.851,0,0,0,.983-0.1,2.7,2.7,0,0,0,.855-0.32,0.878,0.878,0,0,0,.427-0.68h2.34V35.4l0.2,0.14a0.674,0.674,0,0,1,.32-0.31l0.34-.13a1.278,1.278,0,0,0,.31-0.17,0.761,0.761,0,0,0,.23-0.45,0.116,0.116,0,0,1,.08-0.02,0.081,0.081,0,0,1,.06.02,0.756,0.756,0,0,1,.07.19,1.742,1.742,0,0,0,.07.21c0.027,0.053.09,0.163,0.19,0.33s0.17,0.277.21,0.33l-0.8.8h-0.06a0.408,0.408,0,0,1-.24-0.07,0.411,0.411,0,0,0-.24-0.07,0.282,0.282,0,0,0-.26.13,2.145,2.145,0,0,0-.14.27l-0.14-.12-0.26.26h-3.2V31.8c0.013-.013.048-0.043,0.106-0.09a1.415,1.415,0,0,0,.173-0.17c0.058-.066.113-0.133,0.164-0.2a0.328,0.328,0,0,0,.077-0.2,0.292,0.292,0,0,0-.249-0.15,4.608,4.608,0,0,0-.626-0.12q-0.378-.05-0.826-0.08t-0.845-.05q-0.4-.02-0.686-0.03t-0.348-.01v8.84a0.108,0.108,0,0,0,.09.13,1.42,1.42,0,0,0,.15.01,4.588,4.588,0,0,0,.88-0.09q0.461-.09.88-0.19a0.992,0.992,0,0,0,.61-0.37,2,2,0,0,0,.28-0.56,4.5,4.5,0,0,0,.13-0.51,0.209,0.209,0,0,1,.18-0.22h8a1.171,1.171,0,0,1,.05-0.24,1.756,1.756,0,0,1,.07-0.22,0.081,0.081,0,0,1,.14,0c0.013,0.027.04,0.1,0.08,0.22a0.982,0.982,0,0,1,.06.24h1.46l0.2,0.2v1.52h0.31c0.167,0,.363-0.01.59-0.03s0.467-.043.72-0.07a5.159,5.159,0,0,0,.7-0.12,2.108,2.108,0,0,0,.53-0.2,0.348,0.348,0,0,0,.21-0.3v-6.8a0.882,0.882,0,0,0,.13-0.09c0.06-.047.123-0.1,0.19-0.16s0.127-.117.18-0.17a0.558,0.558,0,0,0,.1-0.12l0.02-.12a0.677,0.677,0,0,0-.02-0.16,0.179,0.179,0,0,0-.12-0.12q-0.9-.12-1.74-0.2t-1.74-.08v0.16Zm1.44-5.79a2.477,2.477,0,0,1-.42-0.22,1.879,1.879,0,0,1-.35-0.29,0.457,0.457,0,0,1-.15-0.3,0.665,0.665,0,0,1,.2-0.52,3.7,3.7,0,0,1,.48-0.36,0.187,0.187,0,0,1,.14.12,0.677,0.677,0,0,1,.02.16,0.193,0.193,0,0,1-.07.17,1.124,1.124,0,0,1-.15.09,1.215,1.215,0,0,0-.15.09,0.194,0.194,0,0,0-.07.17,0.306,0.306,0,0,0,.13.27,3.046,3.046,0,0,0,.3.18,1.715,1.715,0,0,1,.3.2,0.408,0.408,0,0,1,.13.33A0.988,0.988,0,0,1,136.5,25.09Zm-11.76-.75a0.187,0.187,0,0,1-.21-0.16,1.543,1.543,0,0,1-.03-0.28,0.962,0.962,0,0,1,.22.02,0.611,0.611,0,0,1,.15.06,0.116,0.116,0,0,1,.07.1,0.491,0.491,0,0,1-.05.12,0.537,0.537,0,0,1-.09.14h-0.06Zm0.32,2.8a0.136,0.136,0,0,1-.1.12,0.649,0.649,0,0,1-.16.02,0.234,0.234,0,0,1-.22-0.1,0.457,0.457,0,0,1-.06-0.24c0-.027.007-0.11,0.02-0.25a3.753,3.753,0,0,1,.07-0.44,3.908,3.908,0,0,1,.11-0.41,0.208,0.208,0,0,1,.14-0.18,0.163,0.163,0,0,1,.16.14,1.919,1.919,0,0,1,.06.3,2.482,2.482,0,0,1,0,.44Zm4.37-.18a0.552,0.552,0,0,1-.37.18,0.568,0.568,0,0,1-.35-0.06,0.4,0.4,0,0,1-.05-0.24,1.741,1.741,0,0,1,.08-0.53,0.369,0.369,0,0,1,.4-0.25,0.428,0.428,0,0,1,.35.16,0.612,0.612,0,0,1,.13.4A0.5,0.5,0,0,1,129.43,26.96Zm-0.37-.36v0.3a0.313,0.313,0,0,0,.28-0.16,0.711,0.711,0,0,0-.14-0.14h-0.14Zm1.08,5.88a5.405,5.405,0,0,1-.5.29,1.149,1.149,0,0,1-.52.11,0.534,0.534,0,0,1-.32-0.1,0.345,0.345,0,0,1-.14-0.3,1.114,1.114,0,0,1,.07-0.39,1.168,1.168,0,0,0,.07-0.41,5.44,5.44,0,0,0-.25-1.69,3.162,3.162,0,0,0-.95-1.39h0.06a0.948,0.948,0,0,1,.48.14,3.1,3.1,0,0,1,.47.34q0.229,0.2.45,0.4a3.494,3.494,0,0,0,.4.32,0.118,0.118,0,0,1,.02.08,0.5,0.5,0,0,1-.15.37,0.582,0.582,0,0,0-.15.43,0.611,0.611,0,0,0,.15.45,2.158,2.158,0,0,0,.33.27,2.158,2.158,0,0,1,.33.27,0.642,0.642,0,0,1,.15.47v0.34Zm0.66-1.74h-0.14V30.6h0.14v0.14Zm-6.66,1.34-0.46.1a2.993,2.993,0,0,0-.54.17,1.476,1.476,0,0,0-.44.28,0.567,0.567,0,0,0-.18.43,1.154,1.154,0,0,0,.11.52,3.809,3.809,0,0,0,.31.5,0.247,0.247,0,0,1-.28.28,0.377,0.377,0,0,1-.24-0.21,2.921,2.921,0,0,1-.26-0.5q-0.12-.29-0.21-0.57a1.526,1.526,0,0,1-.09-0.42,0.407,0.407,0,0,1,.26-0.41q0.26-.11.56-0.21a2.038,2.038,0,0,0,.55-0.28,0.672,0.672,0,0,0,.23-0.62,0.116,0.116,0,0,1,.08-0.02,0.427,0.427,0,0,1,.12.11q0.1,0.11.21,0.25a2.945,2.945,0,0,1,.19.27,0.444,0.444,0,0,1,.08.19v0.14ZM138,31.54a1.083,1.083,0,0,1,.18-0.21,0.374,0.374,0,0,1,.26-0.09,0.265,0.265,0,0,1-.3.3H138Zm-8.66.5a0.314,0.314,0,0,0-.28.16,0.283,0.283,0,0,0,.28.18V32.04Zm-6.64,5.37c0-.087.033-0.13,0.1-0.13s0.1,0.044.1,0.13-0.033.13-.1,0.13S122.7,37.5,122.7,37.41ZM136,38.54a0.168,0.168,0,0,1-.12.19,0.911,0.911,0,0,1-.22.03,0.31,0.31,0,0,1-.34-0.36,0.6,0.6,0,0,1,.21-0.41q0.21-.21.33-0.31l0.14,0.8v0.06Zm-12,.22a0.247,0.247,0,0,1-.26-0.24,2.476,2.476,0,0,1-.04-0.4,1.288,1.288,0,0,1,.41.07,0.448,0.448,0,0,1,.29.29,0.464,0.464,0,0,1-.4.28h0ZM152.66,27.8a0.14,0.14,0,0,1-.12-0.12,1.95,1.95,0,0,0,.02-1.14,1.332,1.332,0,0,0-.7-0.86V25.54a0.683,0.683,0,0,1,.21-0.12,3.22,3.22,0,0,1,.33-0.14c0.053-.027.15-0.067,0.29-0.12l0.44-.17c0.153-.06.3-0.113,0.44-0.16s0.237-.076.29-0.09a1.207,1.207,0,0,1-.02-0.48,0.262,0.262,0,0,1,.3-0.16v0.54c0.147,0,.3-0.006.46-0.02a1.619,1.619,0,0,0,.43-0.09,0.766,0.766,0,0,0,.32-0.22,0.635,0.635,0,0,0,.13-0.43,1.551,1.551,0,0,0-.42-1.04,4.061,4.061,0,0,0-1.02-.83,5.971,5.971,0,0,0-1.25-.55,3.932,3.932,0,0,0-1.13-.2,0.979,0.979,0,0,0-.37.05,0.318,0.318,0,0,0-.11.31,0.785,0.785,0,0,0,.04.27,0.387,0.387,0,0,0,.24.19,0.91,0.91,0,0,1,.22-0.39,0.505,0.505,0,0,1,.38-0.17,0.712,0.712,0,0,1,.2.02,2.331,2.331,0,0,1,.31.34c0.113,0.147.237,0.3,0.37,0.45a2.5,2.5,0,0,0,.42.39,0.744,0.744,0,0,0,.44.16,0.962,0.962,0,0,0,.34-0.06,0.962,0.962,0,0,1,.34-0.06,0.543,0.543,0,0,1-.277.56,2.744,2.744,0,0,1-.623.18,2.729,2.729,0,0,0-.623.18,0.523,0.523,0,0,0-.277.54v0.12a1.934,1.934,0,0,0,.14.2,2.032,2.032,0,0,1,.14.2v0.08a0.14,0.14,0,0,1-.11.15,0.957,0.957,0,0,1-.252.03,1.631,1.631,0,0,1-.265-0.02c-0.081-.013-0.129-0.02-0.142-0.02q0-.28.01-0.67a5.985,5.985,0,0,0-.031-0.78,3.285,3.285,0,0,0-.162-0.74,1.213,1.213,0,0,0-.408-0.57,1.621,1.621,0,0,1-.85.9,10.472,10.472,0,0,1-1.68.74q-0.97.34-2.08,0.62t-2.04.53q-0.93.25-1.54,0.48a0.762,0.762,0,0,0-.61.47,0.385,0.385,0,0,0,.1.21,2.1,2.1,0,0,0,.16.19h1.34q0.9,0,1.75-.07t1.71-.07h0.54a0.9,0.9,0,0,1,.29.32,1.888,1.888,0,0,1,.17.43,2.247,2.247,0,0,1,.07.47c0.007,0.16.01,0.3,0.01,0.42a2.516,2.516,0,0,1-.02.27c-0.013.114-.1,0.143-0.26,0.09q-0.581.1-1.24,0.19t-1.33.17q-0.671.08-1.35,0.13t-1.28.05a1.416,1.416,0,0,1-.6-0.12q-0.26-.12-0.5-0.26t-0.49-.26a1.351,1.351,0,0,0-.59-0.12q0,0.48.03,0.83a2.947,2.947,0,0,0,.13.66,3.717,3.717,0,0,0,.26.61,4.709,4.709,0,0,0,.44.66,0.832,0.832,0,0,1,.11-0.25,0.253,0.253,0,0,1,.21-0.15h0.08a0.189,0.189,0,0,1,.12.14l-0.26.26a1.908,1.908,0,0,0,.61.55,1.518,1.518,0,0,0,.79.25,3.853,3.853,0,0,0,1.19-.19q0.589-.19,1.17-0.41t1.17-.41a3.99,3.99,0,0,1,1.23-.19,0.384,0.384,0,0,1,.33.09,0.822,0.822,0,0,1,.05.35,4.976,4.976,0,0,1-.41,1.95,10.573,10.573,0,0,1-1.01,1.85,13.126,13.126,0,0,1-1.32,1.64q-0.72.76-1.32,1.33t-1.01.91a1.583,1.583,0,0,0-.41.4,0.246,0.246,0,0,0,.11.26,0.867,0.867,0,0,0,.29.04,3.771,3.771,0,0,0,.6-0.06,3.882,3.882,0,0,0,.69-0.18,2.027,2.027,0,0,0,.57-0.31,0.561,0.561,0,0,0,.24-0.45,2.593,2.593,0,0,0,1.09-.29,7.06,7.06,0,0,0,1.24-.77,11.509,11.509,0,0,0,1.23-1.09,11.981,11.981,0,0,0,1.07-1.24,7.125,7.125,0,0,0,.75-1.23,2.559,2.559,0,0,0,.28-1.06h-0.68a0.115,0.115,0,0,1-.09-0.11,1.309,1.309,0,0,1-.04-0.24c-0.007-.087-0.01-0.17-0.01-0.25V31.74a3.054,3.054,0,0,1,.04-0.54,3.047,3.047,0,0,0,.04-0.54,1.054,1.054,0,0,1,.98.48,0.3,0.3,0,0,0,.2-0.22c0.027-.106.05-0.22,0.07-0.34s0.043-.24.07-0.36a0.429,0.429,0,0,1,.2-0.28l1.6-.02q0.96,0,1.89.09t1.89,0.09a1.128,1.128,0,0,1,.12-0.49q0.12-.25.26-0.48t0.26-.42a0.632,0.632,0,0,0,.12-0.31,0.607,0.607,0,0,0-.31-0.51,2.981,2.981,0,0,0-.73-0.35,5.679,5.679,0,0,0-.83-0.21,4.033,4.033,0,0,0-.61-0.07,4.34,4.34,0,0,0-.83.08q-0.41.08-.83,0.19t-0.84.19a4.466,4.466,0,0,1-.84.08h-0.06Zm-1.86-2a0.488,0.488,0,0,1-.19.12c-0.113.054-.237,0.11-0.37,0.17s-0.263.113-.39,0.16-0.21.077-.25,0.09a0.269,0.269,0,0,1-.3-0.16,2.363,2.363,0,0,1-.21-0.47,3.211,3.211,0,0,1-.13-0.54,2.977,2.977,0,0,1-.04-0.37,0.083,0.083,0,0,1,.02-0.06,1.723,1.723,0,0,0,.55.34,1.193,1.193,0,0,0,.65.06Zm-4.2-.4a0.287,0.287,0,0,1,.25.13,0.469,0.469,0,0,1,.09.27,0.239,0.239,0,0,1-.26.28,4.335,4.335,0,0,1-.47-0.03,0.381,0.381,0,0,1-.35-0.25,0.834,0.834,0,0,1,.35-0.25q0.251-.11.33-0.15h0.06Zm4.76,0.41c0-.086.033-0.13,0.1-0.13s0.1,0.044.1,0.13-0.033.13-.1,0.13S151.36,25.9,151.36,25.81ZM150,27.14a0.3,0.3,0,0,1-.16-0.26H150v0.26Zm6.94,0.54h-0.28a0.283,0.283,0,0,1,.28-0.18v0.18Zm-1.33,1.59a1.027,1.027,0,0,1-.49.15,0.442,0.442,0,0,1-.25-0.073c-0.073-.049-0.14-0.1-0.2-0.147s-0.127-.1-0.2-0.146a0.441,0.441,0,0,0-.25-0.073,0.755,0.755,0,0,0-.39.1,0.751,0.751,0,0,1-.39.1,0.769,0.769,0,0,1,.28-0.39q0.281-.27.63-0.55c0.233-.186.457-0.353,0.67-0.5a1.38,1.38,0,0,1,.38-0.22,0.332,0.332,0,0,1,.3.16,1.07,1.07,0,0,1,.14.37,2.377,2.377,0,0,1,.04.45v0.38A0.443,0.443,0,0,1,155.61,29.27Zm-5.31-1.46c0-.086.033-0.13,0.1-0.13s0.1,0.044.1,0.13-0.033.13-.1,0.13S150.3,27.9,150.3,27.81Zm-8.56.67-0.28-.14,0.14-.14a0.711,0.711,0,0,1,.14.14v0.14Zm5.4,0.26a0.574,0.574,0,0,1,.26.06,0.618,0.618,0,0,0,.28.06,0.506,0.506,0,0,0,.36-0.13,0.508,0.508,0,0,1,.36-0.13,0.407,0.407,0,0,1,.3.12,0.384,0.384,0,0,1,.12.28,0.306,0.306,0,0,1-.13.27,0.764,0.764,0,0,1-.32.12,2.5,2.5,0,0,1-.39.03h-0.32a1.6,1.6,0,0,1-.49-0.08,0.368,0.368,0,0,1-.25-0.4c0-.04.007-0.06,0.02-0.06a0.189,0.189,0,0,1,.12-0.14h0.08Zm11.58-.07a0.073,0.073,0,0,0-.06-0.07c-0.04,0-.06.027-0.06,0.08s0.02,0.073.06,0.06A0.073,0.073,0,0,0,158.72,28.67Zm-6.86,2.73a0.48,0.48,0,0,0-.13.26c-0.007.08-.01,0.174-0.01,0.28l0.02,0.26a1.954,1.954,0,0,0,.11-0.3,1.262,1.262,0,0,0,.03-0.3,0.715,0.715,0,0,0-.02-0.2h0Zm-2.92,1.34v-0.4a0.422,0.422,0,0,1,.16.18c0.04,0.08.073,0.154,0.1,0.22h-0.26Zm24-3.06a0.245,0.245,0,0,1-.22.19,1.2,1.2,0,0,1-.32.07h-0.14a4.282,4.282,0,0,1-.16-1.1c-0.027,0-.083,0-0.17.01s-0.177.01-.27,0.01-0.183,0-.27.01-0.15.01-.19,0.01q-0.22,0-.79.03t-1.21.08q-0.64.05-1.21,0.09t-0.79.06a1.373,1.373,0,0,1-.2.14c-0.107.067-.173,0.107-0.2,0.12a0.08,0.08,0,0,1-.06.02,0.114,0.114,0,0,1-.08-0.02,0.817,0.817,0,0,1-.07-0.09,0.218,0.218,0,0,1-.05-0.11h-3.2a0.833,0.833,0,0,1-.24-0.13q-0.2-.13-0.3-0.19c-0.04-.04-0.11-0.1-0.21-0.19s-0.207-.18-0.32-0.28-0.22-.193-0.32-0.28-0.17-.15-0.21-0.19a0.116,0.116,0,0,0-.08-0.02,0.38,0.38,0,0,0-.37.23,1.008,1.008,0,0,0-.11.43,0.623,0.623,0,0,0,.08.33,0.546,0.546,0,0,1,.08.29v0.08a0.033,0.033,0,0,0-.03.02,0.106,0.106,0,0,1-.05.04l-0.06.06v0.06a1.975,1.975,0,0,0,.3.95,4.776,4.776,0,0,0,.75.99,5.054,5.054,0,0,0,.97.78,1.885,1.885,0,0,0,.98.32,9.124,9.124,0,0,0,1.45-.14q0.851-.14,1.76-0.31t1.8-.32a14.783,14.783,0,0,1,1.59-.19q0.26-.02.8-0.03t1.22-.03q0.68-.02,1.44-0.03l1.44-.02,1.23-.02q0.55-.01.81-0.01a0.827,0.827,0,0,0,.7-0.35,1.236,1.236,0,0,0,.26-0.75,1.622,1.622,0,0,0-.07-0.43,1.963,1.963,0,0,0-.2-0.47,1.326,1.326,0,0,0-.32-0.37,0.676,0.676,0,0,0-.43-0.15,2.123,2.123,0,0,0-.71.11,1.925,1.925,0,0,1-.65.11,0.41,0.41,0,0,0-.03-0.19,0.345,0.345,0,0,1-.04-0.09,0.117,0.117,0,0,1,.05-0.1l0.24-.24h-0.17c-0.073,0-.153,0-0.24-0.01s-0.167-.01-0.24-0.01h-0.15l-0.8.02q-0.24.02-.58,0.06l-0.66.08-0.54.07a0.512,0.512,0,0,0-.22.05v0.94Zm-3.6,0H169.2l0.14-.14v0.14Zm-5.34.4-0.14.12V30.08H164Zm11.48,1.22a1.213,1.213,0,0,1-.29-0.07,0.164,0.164,0,0,1-.13-0.15,0.187,0.187,0,0,1,.19-0.19,2.016,2.016,0,0,1,.29-0.03,0.321,0.321,0,0,1,.29.11,0.669,0.669,0,0,1,.07.35,3.814,3.814,0,0,1-.42-0.02h0Zm-11.32.77c0-.086.033-0.13,0.1-0.13s0.1,0.043.1,0.13-0.033.13-.1,0.13S164.16,32.157,164.16,32.07ZM198,36.34a0.781,0.781,0,0,1-.04.23,1.752,1.752,0,0,1-.11.27,0.763,0.763,0,0,1-.17.23,0.323,0.323,0,0,1-.22.09,0.667,0.667,0,0,1-.37-0.15,3.76,3.76,0,0,1-.41-0.34,4.429,4.429,0,0,1-.35-0.37c-0.1-.12-0.163-0.193-0.19-0.22a0.6,0.6,0,0,1,.34-0.29q0.24-.09.49-0.19a1.96,1.96,0,0,0,.44-0.24,0.487,0.487,0,0,0,.19-0.42,0.642,0.642,0,0,0-.17-0.39,1.622,1.622,0,0,1-.23-0.35V34.08a0.61,0.61,0,0,1,.12-0.07l0.14-.07h0.14a0.687,0.687,0,0,1,.14.13l0.12,0.13a0.283,0.283,0,0,0,.02-0.12,1.7,1.7,0,0,0-.31-0.89,5.568,5.568,0,0,0-.81-0.98,10.786,10.786,0,0,0-1.12-.95,11.9,11.9,0,0,0-1.26-.82,8.2,8.2,0,0,0-1.22-.57,2.982,2.982,0,0,0-.98-0.21c-0.067,0-.16,0-0.28.01a0.179,0.179,0,0,0-.18.21,1.157,1.157,0,0,0,.3.77q0.3,0.35.65,0.7a9.45,9.45,0,0,1,.65.72,1.259,1.259,0,0,1,.3.81,0.365,0.365,0,0,1-.16.26,1.187,1.187,0,0,1-.32.16,1.745,1.745,0,0,1-.35.08,2.339,2.339,0,0,1-.25.02,0.453,0.453,0,0,1,.14.33v0.35a0.526,0.526,0,0,1-.26.44,3.963,3.963,0,0,1-.61.34q-0.35.16-.71,0.32a1.851,1.851,0,0,0-.56.36H190.4c-0.013-.067-0.027-0.133-0.04-0.2a1.529,1.529,0,0,0-.05-0.19L190.26,35V34.94a0.665,0.665,0,0,1,.16-0.26q0.16-.2.37-0.44t0.41-.44l0.26-.26H190.8q-0.78,0-1.52.05t-1.52.05a0.1,0.1,0,0,0-.02-0.05,0.037,0.037,0,0,1,0-.05,2.558,2.558,0,0,1,.12-0.26L188,33q0.12-.2.38-0.65t0.58-1.02q0.319-.57.68-1.2t0.69-1.2q0.33-.57.6-1.01t0.41-.64q0.12-.16.32-0.38a5.882,5.882,0,0,0,.39-0.48,5,5,0,0,0,.34-0.53,1.086,1.086,0,0,0,.15-0.53,1.764,1.764,0,0,0-.48-1.2,4.21,4.21,0,0,0-1.17-.91,7.085,7.085,0,0,0-1.44-.58,4.852,4.852,0,0,0-1.27-.21,0.791,0.791,0,0,0-.33.06,0.275,0.275,0,0,0-.13.28,0.714,0.714,0,0,0,.02.2c0.147,0.2.263,0.37,0.35,0.51a2.854,2.854,0,0,1,.21.4,1.349,1.349,0,0,1,.1.39c0.013,0.133.02,0.287,0.02,0.46a4.8,4.8,0,0,1-.32,1.72q-0.319.84-.69,1.66t-0.69,1.63a4.413,4.413,0,0,0-.32,1.63v0.14a1.424,1.424,0,0,0,.25-0.29l0.26-.38a2.878,2.878,0,0,1,.26-0.33,0.36,0.36,0,0,1,.25-0.14q0,0.38.03,0.86a3.3,3.3,0,0,1-.06.9,1.47,1.47,0,0,1-.36.71,1.11,1.11,0,0,1-.85.29,0.419,0.419,0,0,1-.31-0.11,0.472,0.472,0,0,1-.01-0.45q-0.14.36-.26,0.63a1.754,1.754,0,0,1-.29.46,1.1,1.1,0,0,1-.42.29,1.707,1.707,0,0,1-.63.1,1.3,1.3,0,0,1-.53-0.11q-0.251-.11-0.49-0.23t-0.48-.23a1.192,1.192,0,0,0-.5-0.11,0.35,0.35,0,0,0-.36.3,2.03,2.03,0,0,0-.08.5h0.32v0.68a0.394,0.394,0,0,0-.14.05l-0.14.07v0.06a1.81,1.81,0,0,0,.25.86,4.016,4.016,0,0,0,.62.85,3.631,3.631,0,0,0,.82.65,1.711,1.711,0,0,0,.85.26h0.26a1.549,1.549,0,0,1-.28-0.08,2.543,2.543,0,0,1-.31-0.14,0.828,0.828,0,0,1-.25-0.2,0.4,0.4,0,0,1-.1-0.26,1.08,1.08,0,0,1,.02-0.15,0.115,0.115,0,0,1,.12-0.11l1.48,0.14a0.285,0.285,0,0,1,.02.12,0.4,0.4,0,0,1-.12.31,2.475,2.475,0,0,1-.3.23h0.12a7.771,7.771,0,0,1,1.28-.5q0.88-.28,1.96-0.57t2.21-.58l2.06-.53q0.93-.24,1.52-0.41a1.555,1.555,0,0,0,.57-0.21,0.192,0.192,0,0,1,.14.11,0.559,0.559,0,0,1,.02.15,0.182,0.182,0,0,1-.08.18,0.162,0.162,0,0,0-.08.16,3.472,3.472,0,0,0,.1.83,2.425,2.425,0,0,0,.32.75,1.854,1.854,0,0,0,.54.55,1.389,1.389,0,0,0,.78.21,1.8,1.8,0,0,0,1.35-.52,1.94,1.94,0,0,0,.51-1.42,4.517,4.517,0,0,0-.06-0.7,2.867,2.867,0,0,0-.2-0.7v2Zm-8.54-12.86a0.489,0.489,0,0,1,.14-0.36,0.464,0.464,0,0,1,.34-0.14,1.426,1.426,0,0,1-.06.39,0.476,0.476,0,0,1-.28.31,0.7,0.7,0,0,1-.14-0.14V23.48Zm1.48,0.32H190.8V23.68Zm1.14,1.4q0-.08.06-0.06a0.071,0.071,0,0,1,0,.14C192.1,25.28,192.08,25.253,192.08,25.2Zm-2.62.74-0.12-.14h0.12v0.14Zm6.14,6.26-0.14.14V32.2h0.14Zm0.26,1.88a2.024,2.024,0,0,1-.64.14q-0.34.02-.66,0.02a1.342,1.342,0,0,1,.05-0.33,1.4,1.4,0,0,1,.15-0.36,1.156,1.156,0,0,1,.24-0.29,0.5,0.5,0,0,1,.34-0.12,0.231,0.231,0,0,1,.06.04,0.135,0.135,0,0,1,.03.05,0.132,0.132,0,0,0,.03.05c0.04,0.053.113,0.167,0.22,0.34a2.43,2.43,0,0,1,.18.32,0.083,0.083,0,0,1,.02.06,0.117,0.117,0,0,1-.02.08h0Zm0.3,0.13c0-.087.033-0.13,0.1-0.13s0.1,0.043.1,0.13-0.033.13-.1,0.13S196.16,34.3,196.16,34.21Zm0.31,0.19a0.073,0.073,0,0,1-.07-0.06q-0.02-.06.06-0.06c0.053,0,.08.02,0.08,0.06A0.073,0.073,0,0,1,196.47,34.4Zm-4.73.08V34.34H191.6v0.14h0.14Zm2.7,0.13c0-.087.033-0.13,0.1-0.13s0.1,0.044.1,0.13-0.033.13-.1,0.13S194.44,34.7,194.44,34.61Zm-4.98.27a0.313,0.313,0,0,1-.16-0.28h0.16v0.28Zm8.14,1.46-0.14-.14-0.12.14,0.12,0.14Z"/>
  <path id="欠落" class="cls-3" d="M70.837,28.84a0.277,0.277,0,0,1-.12.02,1.006,1.006,0,0,1-.2.02,0.511,0.511,0,0,1-.49-0.35,3.757,3.757,0,0,1-.05-0.67A1.956,1.956,0,0,1,70,27.626a2.086,2.086,0,0,1,.06-0.3,0.7,0.7,0,0,1,.12-0.246,0.245,0.245,0,0,1,.2-0.1,0.328,0.328,0,0,1,.27.147q0.11,0.147.19,0.273V25.8h3a0.24,0.24,0,0,1,.25.09,0.741,0.741,0,0,1,.03.23,3.529,3.529,0,0,1-.15,1.02q-0.15.5-.32,1t-0.32,1a3.533,3.533,0,0,0-.15,1.02,0.469,0.469,0,0,0,.05.23,0.219,0.219,0,0,0,.21.09,0.886,0.886,0,0,0,.44-0.14,1.8,1.8,0,0,0,.36-0.26l3.48-3.48,0.8-.4a0.112,0.112,0,0,0,.02-0.1,0.511,0.511,0,0,0-.03-0.18,0.214,0.214,0,0,0-.13-0.12,0.7,0.7,0,0,1-.1.2,1.326,1.326,0,0,1-.08.14,0.107,0.107,0,0,1-.08.06,0.564,0.564,0,0,1-.29-0.09,1.215,1.215,0,0,1-.27-0.22,1.316,1.316,0,0,1-.2-0.284,0.607,0.607,0,0,1-.08-0.276,0.718,0.718,0,0,1,.05-0.255,0.19,0.19,0,0,1,.25-0.093q-0.1-.1-0.34-0.342t-0.51-.49q-0.27-.25-0.49-0.44a0.938,0.938,0,0,0-.26-0.19h-0.26q-0.06.06-.21,0.22t-0.32.33l-0.32.32a1.062,1.062,0,0,1-.23.19,1.271,1.271,0,0,1-.27.17,1,1,0,0,1-.25.11H67.1a1.8,1.8,0,0,1,.18-0.8,1.757,1.757,0,0,0,.18-0.784,0.342,0.342,0,0,0-.02-0.139,0.972,0.972,0,0,1-.31.119,2.109,2.109,0,0,1-.31.02,0.291,0.291,0,0,1-.32-0.337,0.8,0.8,0,0,1,.2-0.506,0.582,0.582,0,0,1,.46-0.248,1.189,1.189,0,0,1,.37.05,0.724,0.724,0,0,1,.31.25q0.28-.16.55-0.29a0.475,0.475,0,0,0,.27-0.47,0.509,0.509,0,0,0-.35-0.4,4.327,4.327,0,0,0-.82-0.31,7.739,7.739,0,0,0-.96-0.2,5.767,5.767,0,0,0-.75-0.07h-0.06a0.922,0.922,0,0,0-.21.07,0.391,0.391,0,0,0-.07.05,1.43,1.43,0,0,0-.34-0.02c0-.133,0-0.23-0.01-0.29s-0.11-.09-0.31-0.09a0.565,0.565,0,0,0-.44.46,5.847,5.847,0,0,0-.29,1.04q-0.11.58-.16,1.13t-0.05.73v0.12q0.02,0.04.08,0.2a0.862,0.862,0,0,1,.06.2,0.231,0.231,0,0,1-.12.07,0.629,0.629,0,0,0-.14.07,0.239,0.239,0,0,0-.14.12q-0.46,1.28-.98,2.44t-1.16,2.36a0.7,0.7,0,0,0,.2.02,1.01,1.01,0,0,0,.62-0.21,0.955,0.955,0,0,1,.58-0.21h0.08a0.239,0.239,0,0,1,.12.14,0.117,0.117,0,0,1,.02.08,0.081,0.081,0,0,1-.02.06l-1.06,1.06-0.18.02a0.653,0.653,0,0,1-.62-0.42,4.934,4.934,0,0,0-.43.45,0.866,0.866,0,0,0-.25.55,0.153,0.153,0,0,0,.12.18,1.327,1.327,0,0,0,.22.02,1.9,1.9,0,0,0,1.08-.39,7.013,7.013,0,0,0,1.11-.98,16.413,16.413,0,0,0,1.08-1.29q0.53-.7,1.01-1.29a11.833,11.833,0,0,1,.89-0.99,1.131,1.131,0,0,1,.71-0.4,1.263,1.263,0,0,1,.24.02,0.523,0.523,0,0,1,.22.12L67.2,27.2a14.5,14.5,0,0,1-.46,3.68,12.76,12.76,0,0,1-3.58,6.08,13.8,13.8,0,0,1-3.04,2.18v0.48a7.3,7.3,0,0,0,3.49-.86,11.7,11.7,0,0,0,2.9-2.19,15.115,15.115,0,0,0,2.23-2.95,20.213,20.213,0,0,0,1.5-3.14,0.117,0.117,0,0,1,.08-0.02,0.083,0.083,0,0,1,.06.02,0.239,0.239,0,0,1,.14.12q0.02,0.12.09,0.43t0.16,0.65q0.09,0.34.16,0.64t0.11,0.42q0.04,0.16.19,0.58t0.38,0.97q0.23,0.55.51,1.15a11.968,11.968,0,0,0,.58,1.1,5.7,5.7,0,0,0,.58.82,0.749,0.749,0,0,0,.5.32h0.06q-0.12-.18-0.2-0.33a0.732,0.732,0,0,1-.08-0.35,0.273,0.273,0,0,1,.15-0.26,0.273,0.273,0,0,0,.15-0.26,0.269,0.269,0,0,0-.15-0.27,0.269,0.269,0,0,1-.15-0.27,0.438,0.438,0,0,1,.1-0.27,0.313,0.313,0,0,1,.26-0.13,0.2,0.2,0,0,1,.21.13,1.737,1.737,0,0,1,.08.28,0.844,0.844,0,0,0,.11.28,0.346,0.346,0,0,0,.32.13,2.43,2.43,0,0,0,.34-0.02,0.961,0.961,0,0,0,.34-0.14,1.832,1.832,0,0,1,.22.37,1,1,0,0,1,.06.37,0.707,0.707,0,0,1-.09.37q-0.09.15-.19,0.29a2.687,2.687,0,0,0-.19.31,0.913,0.913,0,0,0-.09.43,1.828,1.828,0,0,0-.47-0.37,1.373,1.373,0,0,0-.59-0.17v0.08a0.763,0.763,0,0,0,.3.44,6.1,6.1,0,0,0,.69.55,6.931,6.931,0,0,0,.78.47,1.478,1.478,0,0,0,.57.2,0.275,0.275,0,0,0,.22-0.16,2.491,2.491,0,0,0,.18-0.35,3.5,3.5,0,0,0,.13-0.36,0.734,0.734,0,0,1,.07-0.19,2.146,2.146,0,0,1,.47-0.63q0.35-.35.72-0.67t0.66-.54a1.792,1.792,0,0,0,.29-0.24,0.083,0.083,0,0,0-.02-0.06,0.514,0.514,0,0,1-.22.12,1.231,1.231,0,0,1-.24.02,1.938,1.938,0,0,1-.2-0.01,0.164,0.164,0,0,1-.14-0.13,0.886,0.886,0,0,0-.32-0.37q-0.3-.25-0.73-0.54t-0.95-.61q-0.52-.32-0.98-0.57t-0.8-.42a1.538,1.538,0,0,0-.42-0.17,0.082,0.082,0,0,0-.06.02,0.148,0.148,0,0,0-.07.06,0.15,0.15,0,0,1-.07.06,1.169,1.169,0,0,1-.28.07q-0.26.05-.38,0.07l-0.1-.02a0.535,0.535,0,0,1,.09-0.39,1.533,1.533,0,0,1,.55-0.13,1.848,1.848,0,0,0-.25-0.48q-0.17-.24-0.37-0.47L72.707,32a3.044,3.044,0,0,1-.33-0.46,15.49,15.49,0,0,1-.86-1.8q-0.34-.86-0.68-1.94v1.04Zm-5.73-5.78a0.073,0.073,0,0,1-.07-0.06q0-.06.08-0.06T65.177,23A0.073,0.073,0,0,1,65.107,23.06Zm1.01,1.92H65a0.315,0.315,0,0,1,.12-0.23c0.08-.073.147-0.13,0.2-0.17h0.12l0.42,0.16a0.9,0.9,0,0,1,.26.12v0.12Zm8.56-.26c0-.093.033-0.14,0.1-0.14s0.1,0.047.1,0.14-0.033.14-.1,0.14S74.677,24.813,74.677,24.72Zm3.14,0.4c0-.093-0.033-0.14-0.1-0.14s-0.1.047-.1,0.14,0.033,0.14.1,0.14S77.817,25.213,77.817,25.12Zm-8.06,0q0,0.28-.01.54a1.479,1.479,0,0,1-.09.47,0.731,0.731,0,0,1-.26.34,0.84,0.84,0,0,1-.5.13,1.4,1.4,0,0,1-.31-0.03,0.342,0.342,0,0,1-.21-0.25,1.083,1.083,0,0,0,1.2-1.2h0.18Zm-5.38,1.38a0.3,0.3,0,0,1,0-.6v0.6Zm3.74-.28a1.874,1.874,0,0,1-.39-0.05,0.256,0.256,0,0,1-.23-0.27,1.489,1.489,0,0,1,.41.06,0.574,0.574,0,0,1,.33.24,0.277,0.277,0,0,1-.12.02h0Zm6.24,2.26a1.9,1.9,0,0,1,.05-0.42,2.963,2.963,0,0,1,.11-0.38,0.282,0.282,0,0,1,.12-0.02,0.29,0.29,0,0,1,.26.12,1.476,1.476,0,0,1,.14.27,1.816,1.816,0,0,0,.14.28,0.326,0.326,0,0,0,.26.15h-1.08Zm-6.12,1.06q0.14,0,.34.01a0.178,0.178,0,0,1,.2.19,1.123,1.123,0,0,1-.1.45,1.7,1.7,0,0,1-.26.42,1.536,1.536,0,0,1-.37.32,0.776,0.776,0,0,1-.41.13,1.152,1.152,0,0,1,.07-0.42q0.07-.18.15-0.35l0.16-.34a1.2,1.2,0,0,0,.1-0.41h0.12Zm-1.02,3.87a0.1,0.1,0,1,1,.2,0c0,0.087-.033.13-0.1,0.13S67.217,33.5,67.217,33.41Zm6.72,0.13c0-.093-0.033-0.14-0.1-0.14s-0.1.047-.1,0.14,0.033,0.14.1,0.14S73.937,33.633,73.937,33.54Zm1.24,2.3a0.3,0.3,0,0,1,0-.6v0.6Zm-9.2.9a0.7,0.7,0,0,1-.2.02,0.31,0.31,0,0,1-.34-0.36V36.2Zm-3.83,2.01a0.751,0.751,0,0,1-.27.17,1.863,1.863,0,0,1-.33.09,1.711,1.711,0,0,1-.29.03,0.617,0.617,0,0,1,.29-0.55,2.687,2.687,0,0,1,.57-0.29,0.179,0.179,0,0,1,.12.12,0.662,0.662,0,0,1,.02.16A0.368,0.368,0,0,1,62.147,38.75Zm12.97-.21q0-.08.06-0.06a0.06,0.06,0,0,1,0,.12Q75.117,38.62,75.117,38.54Zm0.1,0.2q0-.14.1-0.14t0.1,0.14c0,0.093-.033.14-0.1,0.14S75.217,38.833,75.217,38.74Zm0.62,0.4-0.4-.26a0.441,0.441,0,0,1,.14-0.02,0.575,0.575,0,0,1,.2.03,1.047,1.047,0,0,1,.2.11Zm15-16.66a0.306,0.306,0,0,1-.08.06,0.238,0.238,0,0,0-.06.04,0.081,0.081,0,0,1-.06.02,0.351,0.351,0,0,1-.16.1,0.834,0.834,0,0,0-.1.04h-2a0.316,0.316,0,0,1-.27-0.12,0.668,0.668,0,0,1-.12-0.29,1.894,1.894,0,0,1-.03-0.33V21.74l0.02-.6a0.338,0.338,0,0,1,.14-0.14h0.12a0.575,0.575,0,0,1,.09.14,0.4,0.4,0,0,1,.05.14l0.14-.14a0.725,0.725,0,0,0,.12-0.14c0.013,0,.02-0.02.02-0.06q0-.2-0.55-0.31a9.1,9.1,0,0,0-1.24-.15q-0.69-.04-1.3-0.04h-0.73V22.6l-0.32.2h-4.58q0,0.06.02,0.24t0.02,0.24c0.013,0.04.037,0.1,0.07,0.19a0.254,0.254,0,0,0,.07.13h4.66v1.54l-0.14.14q-0.62-.18-1.19-0.3a5.865,5.865,0,0,0-1.21-.12l-0.66.02a0.137,0.137,0,0,0-.12.1,0.657,0.657,0,0,0-.02.16,1.889,1.889,0,0,0,.31.84,7.594,7.594,0,0,0,.75,1.07,6.344,6.344,0,0,0,.93.92,1.32,1.32,0,0,0,1.87.01,1.284,1.284,0,0,0,.42-1,1.265,1.265,0,0,0-.14-0.59,1.3,1.3,0,0,1-.14-0.61q0-.16.08-0.17t0.32-.07a1.668,1.668,0,0,0,.18-0.02l0.3-.04q0.16-.02.29-0.04a0.68,0.68,0,0,0,.17-0.04,1.4,1.4,0,0,0,.83-0.38,1.669,1.669,0,0,0,.35-0.58q0.1-.3.16-0.53a0.26,0.26,0,0,1,.26-0.23h2a0.321,0.321,0,0,1,.36.23,1.711,1.711,0,0,1,.06.43,2.027,2.027,0,0,1-.03.4,0.267,0.267,0,0,1-.31.14,2.074,2.074,0,0,1-.76-0.14,2.03,2.03,0,0,0-.74-0.14,0.612,0.612,0,0,0-.4.39,6.32,6.32,0,0,0-.41.9,10.33,10.33,0,0,0-.32,1.01,3.3,3.3,0,0,0-.13.7,0.115,0.115,0,0,0,.02.08l0.57,0.3a0.458,0.458,0,0,1-.17.9,0.4,0.4,0,0,1-.47-0.25,4.789,4.789,0,0,1-.07-0.69,1.483,1.483,0,0,0-.34.46q-0.2.36-.42,0.76a5.432,5.432,0,0,1-.46.71,0.639,0.639,0,0,1-.46.31,2.078,2.078,0,0,1,.14-0.76q0.14-.36.31-0.71t0.31-.71a2.027,2.027,0,0,0,.14-0.74,0.323,0.323,0,0,0-.05-0.19,0.278,0.278,0,0,0-.23-0.07,0.85,0.85,0,0,0-.6.41,6.58,6.58,0,0,0-.6.93q-0.28.52-.5,1.03t-0.3.71a0.656,0.656,0,0,1,.13.11l0.2,0.2q0.11,0.11.2,0.21t0.13,0.14a0.627,0.627,0,0,1,.07.14,0.233,0.233,0,0,0,.07.12c0,0.014.02,0.02,0.06,0.02s0.06-.006.06-0.02a0.966,0.966,0,0,0,.27-0.25,0.4,0.4,0,0,1,.35-0.15h0.06a0.629,0.629,0,0,0,.06.14,0.638,0.638,0,0,1,.06.14h0.14q0.12-.08.61-0.45t1.05-.77l1.02-.73a2.444,2.444,0,0,1,.52-0.33,0.219,0.219,0,0,0,.06.04,0.092,0.092,0,0,1,.05.05,0.122,0.122,0,0,0,.03.05q0.12,0.16.26,0.36t0.26,0.41a3.323,3.323,0,0,1,.2.41,0.987,0.987,0,0,1,.08.36v0.06A6,6,0,0,1,89.3,31.5a14.388,14.388,0,0,1-1.56.99q-0.82.45-1.64,0.81l-1.46.64-0.12.26h1.2a0.365,0.365,0,0,1,.2-0.22,1.459,1.459,0,0,1,.29-0.09,2.354,2.354,0,0,1,.3-0.04,1.063,1.063,0,0,0,.27-0.05,1.493,1.493,0,0,0,.84-0.41,1.973,1.973,0,0,0,.32-0.53q0.1-.26.2-0.46a0.51,0.51,0,0,1,.5-0.2h0.14l-0.14,1.2q-0.08.02-.31,0.09a0.265,0.265,0,0,0-.23.25c0,0.04.007,0.06,0.02,0.06a0.3,0.3,0,0,0,.12.14,0.651,0.651,0,0,1,.14.14V34.1l-0.02.04a0.155,0.155,0,0,0-.02.06h-0.9v5.38q0.28,0,.78-0.01a5.52,5.52,0,0,0,.99-0.11,2.468,2.468,0,0,0,.87-0.35,0.96,0.96,0,0,0,.44-0.71h1.2a0.646,0.646,0,0,1,.27-0.34,4.967,4.967,0,0,1,.55-0.38q0.3-.18.55-0.3a1.375,1.375,0,0,1,.29-0.12,0.288,0.288,0,0,1,.25.13,0.468,0.468,0,0,1,.09.27,0.249,0.249,0,0,1-.11.24,0.746,0.746,0,0,1-.26.08c-0.1.013-.2,0.03-0.31,0.05a0.4,0.4,0,0,0-.26.17,0.814,0.814,0,0,1,.45.52,1.921,1.921,0,0,1,.09.68l0.52,0.02q0.14,0,.54-0.04t0.83-.12a4.445,4.445,0,0,0,.77-0.21,0.413,0.413,0,0,0,.34-0.31V34.88l0.46-.4q-0.28-.06-0.52-0.1a3.058,3.058,0,0,0-.5-0.04,0.779,0.779,0,0,0-.43.09,2.455,2.455,0,0,0-.41.45,0.115,0.115,0,0,1-.02-0.08,0.811,0.811,0,0,1,.19-0.58,1.191,1.191,0,0,1,.47-0.3,3.269,3.269,0,0,1,.62-0.15,3.217,3.217,0,0,0,.62-0.15,1.316,1.316,0,0,0,.47-0.28,0.71,0.71,0,0,0,.19-0.54,0.535,0.535,0,0,0-.11-0.34q-0.11-.14-0.23-0.27t-0.23-.26a0.492,0.492,0,0,1-.11-0.33V31.54l0.26-.14a3.6,3.6,0,0,0-.57-0.13q-0.41-.07-0.85-0.18a3.782,3.782,0,0,1-.78-0.28,0.492,0.492,0,0,1-.34-0.41,0.082,0.082,0,0,1,.02-0.06,7.25,7.25,0,0,1,.75-0.76q0.45-.4.92-0.79t0.88-.78a5.075,5.075,0,0,0,.65-0.73q-0.46-.48-1.08-1.1a10.113,10.113,0,0,0-1.2-1.04,0.711,0.711,0,0,0-.2-0.02,1.288,1.288,0,0,0-.38.07,0.282,0.282,0,0,0-.22.29v0.06a1.291,1.291,0,0,1,.31-0.12,1.708,1.708,0,0,1,.29-0.02h0.2l1.2,1.2a2.163,2.163,0,0,0,.43.28,0.436,0.436,0,0,1,.27.4,0.2,0.2,0,0,1-.17.22,1.352,1.352,0,0,1-.31.04,1.582,1.582,0,0,1-1-.27,2.628,2.628,0,0,1-.56-0.6q-0.22-.33-0.42-0.6a0.657,0.657,0,0,0-.56-0.27h-0.08a1.21,1.21,0,0,1-.1.08l-0.17.13q-0.09.07-.25,0.19a1.455,1.455,0,0,1-.16.09,0.478,0.478,0,0,1-.12.05h-1.72a0.145,0.145,0,0,1-.07-0.05,0.355,0.355,0,0,1-.07-0.09V26.08a1.248,1.248,0,0,0,.7-0.45,2.487,2.487,0,0,0,.33-0.63q0.11-.32.2-0.56a0.318,0.318,0,0,1,.31-0.24,0.221,0.221,0,0,1,.19.1,0.807,0.807,0,0,1,.11.24,1.392,1.392,0,0,1,.05.28c0.007,0.093.01,0.16,0.01,0.2a0.413,0.413,0,0,0,.42-0.22,1.606,1.606,0,0,0,.13-0.49q0.03-.27.04-0.49a0.182,0.182,0,0,1,.17-0.22h1.2l-0.4-.46h0.08a0.773,0.773,0,0,1,.33.07l0.3,0.14,0.3,0.14a0.816,0.816,0,0,0,.35.07,0.626,0.626,0,0,0,.43-0.15q0.17-.15.34-0.33a2.893,2.893,0,0,1,.37-0.33,0.81,0.81,0,0,1,.5-0.15,0.745,0.745,0,0,1,.54.28,1.5,1.5,0,0,1,.34.52,0.179,0.179,0,0,0,.12-0.12,0.116,0.116,0,0,0,.02-0.08,0.083,0.083,0,0,0-.02-0.06q-0.58-.62-1.13-1.16a7.061,7.061,0,0,0-1.27-.98,3.763,3.763,0,0,0-.63.69,2.9,2.9,0,0,1-.33.44,0.878,0.878,0,0,1-.44.24,4.487,4.487,0,0,1-.96.07,3.673,3.673,0,0,1,.06-0.82,0.8,0.8,0,0,1,.14-0.31,1.375,1.375,0,0,1,.14-0.14,0.471,0.471,0,0,0,.06-0.31,0.289,0.289,0,0,0-.26-0.2,4.023,4.023,0,0,0-.67-0.13q-0.41-.05-0.88-0.07t-0.9-.02h-1.13v2.04Zm2.88-.14-0.68.54a1.038,1.038,0,0,1-.11-0.2,0.645,0.645,0,0,1-.03-0.22,0.25,0.25,0,0,1,.09-0.21,0.462,0.462,0,0,1,.21-0.09,1.125,1.125,0,0,1,.26-0.01c0.093,0.007.18,0.01,0.26,0.01v0.18Zm-5.93,1.49a0.251,0.251,0,0,1-.25.17,0.961,0.961,0,0,1,.06-0.34,0.248,0.248,0,0,1,.26-0.16A0.864,0.864,0,0,1,87.787,23.83Zm-0.46.84a1.292,1.292,0,0,1-.15.47,1.588,1.588,0,0,0-.24-0.37,0.581,0.581,0,0,1-.16-0.37,0.214,0.214,0,0,1,.24-0.19,3.17,3.17,0,0,1,.34-0.03A4.109,4.109,0,0,1,87.327,24.67Zm-4.52.86c-0.167.007-.29,0.01-0.37,0.01a0.87,0.87,0,0,1-.23-0.03,0.153,0.153,0,0,1-.11-0.17,0.171,0.171,0,0,1,.15-0.2,2,2,0,0,1,.25-0.02c0.067,0,.177.007,0.33,0.02a0.2,0.2,0,0,1,.23.2Q83.057,25.52,82.807,25.53Zm1.66,1.82a0.138,0.138,0,0,1-.09.05,1.618,1.618,0,0,1-.2-0.25,0.55,0.55,0,0,1-.1-0.31,0.484,0.484,0,0,1,.44.44A0.146,0.146,0,0,1,84.467,27.35Zm8.31-.07a0.4,0.4,0,0,1,.14.05,0.638,0.638,0,0,1,.12.07,0.083,0.083,0,0,1,.02.06,0.871,0.871,0,0,1-.16.4,4.274,4.274,0,0,1-.38.52,3.578,3.578,0,0,1-.45.45,0.669,0.669,0,0,1-.35.19,0.719,0.719,0,0,1-.42-0.14,2.822,2.822,0,0,1-.38-0.32,3.862,3.862,0,0,1-.32-0.36,3.065,3.065,0,0,0-.22-0.26,0.7,0.7,0,0,1-.02-0.2,0.518,0.518,0,0,1,.11-0.31,0.362,0.362,0,0,1,.31-0.15h2Zm-8.66,3.06a2.039,2.039,0,0,0-.45-1.01,2.723,2.723,0,0,0-.84-0.66,3.991,3.991,0,0,0-1.06-.36,5.973,5.973,0,0,0-1.13-.11h-0.52a0.188,0.188,0,0,0-.14.12,0.657,0.657,0,0,0-.02.16,0.727,0.727,0,0,0,.25.51q0.25,0.25.43,0.41l0.13,0.33q0.09,0.23.2,0.48l0.21,0.48q0.1,0.23.14,0.31a0.816,0.816,0,0,0,.38.37,4.49,4.49,0,0,0,.58.26q0.3,0.11.54,0.19a0.28,0.28,0,0,1,.24.18,1.666,1.666,0,0,1-.28.98,2.484,2.484,0,0,1-.7.67,3.176,3.176,0,0,1-.91.4,4.389,4.389,0,0,1-.93.15v0.14a0.369,0.369,0,0,0,.15.3,1.717,1.717,0,0,0,.34.21,3.933,3.933,0,0,0,.39.16,2.883,2.883,0,0,1,.32.13,1.826,1.826,0,0,1,.03-0.28,1.807,1.807,0,0,1,.1-0.36,0.971,0.971,0,0,1,.19-0.31,0.371,0.371,0,0,1,.28-0.13,0.878,0.878,0,0,1,.29.31q0.23,0.31.48,0.7t0.45,0.75a1.436,1.436,0,0,1,.2.46,0.392,0.392,0,0,1-.17.34,0.66,0.66,0,0,1-.39.12,0.371,0.371,0,0,1-.26-0.18q-0.14-.18-0.29-0.41a4.252,4.252,0,0,0-.34-0.45,0.978,0.978,0,0,0-.43-0.3,8.508,8.508,0,0,1-.05,1.49,12.167,12.167,0,0,0-.09,1.49,0.987,0.987,0,0,0,.44.9,1.933,1.933,0,0,0,1.06.28,2.4,2.4,0,0,0,.78-0.13,2.245,2.245,0,0,0,.68-0.37,1.8,1.8,0,0,0,.48-0.59,1.7,1.7,0,0,0,.18-0.79,2.282,2.282,0,0,0-.13-0.78q-0.13-.36-0.28-0.72t-0.28-.72a2.277,2.277,0,0,1-.13-0.78,2.611,2.611,0,0,1,.09-0.69q0.09-.33.19-0.65t0.19-.65a2.534,2.534,0,0,0,.09-0.67h-0.15c-0.073,0-.15,0-0.23.01a0.506,0.506,0,0,0-.22.07,0.2,0.2,0,0,0-.1.18,0.08,0.08,0,0,0,.02.06,0.522,0.522,0,0,0,.06.13,0.536,0.536,0,0,1,.06.13,0.11,0.11,0,0,1-.1.13c-0.067.007-.12,0.01-0.16,0.01a0.832,0.832,0,0,1-.2-0.02,0.551,0.551,0,0,1-.2-0.12l-0.02-.52a0.936,0.936,0,0,1,.14-0.53,3.563,3.563,0,0,1,.31-0.4q0.17-.19.31-0.37a0.7,0.7,0,0,0,.14-0.44h-0.34Zm6,3.06a0.311,0.311,0,0,1-.24-0.07,0.282,0.282,0,0,1-.06-0.19,0.442,0.442,0,0,1,.02-0.14q0.08-.04.34-0.19t0.34-.21a0.179,0.179,0,0,0,.12-0.12,1.2,1.2,0,0,0-.11-0.33l-0.18-.38q-0.09-.19-0.17-0.35a0.643,0.643,0,0,1-.08-0.28,0.442,0.442,0,0,1,.02-0.14,2.432,2.432,0,0,0,.42-0.14,1.363,1.363,0,0,1,.44-0.12h0.06a0.275,0.275,0,0,1,.09.12,0.4,0.4,0,0,1,.05.14,2.249,2.249,0,0,1,.04.25q0.02,0.17.04,0.36t0.04,0.36c0.013,0.113.02,0.19,0.02,0.23a1.944,1.944,0,0,1,.3-0.11,1.262,1.262,0,0,1,.3-0.03,0.736,0.736,0,0,1,.35.08,1.968,1.968,0,0,1,.3.2l0.29,0.23a1.046,1.046,0,0,0,.32.17,0.948,0.948,0,0,1,.17-0.46,0.471,0.471,0,0,1,.41-0.22,0.575,0.575,0,0,1,.27.05,0.243,0.243,0,0,1,.09.23,0.294,0.294,0,0,1-.11.22,1.469,1.469,0,0,1-.27.19l-0.32.18a0.68,0.68,0,0,0-.24.21l-0.16.16-0.1.1h-2.8Zm-6.87-2.06a0.073,0.073,0,0,1-.07-0.06q-0.02-.06.06-0.06c0.053,0,.08.02,0.08,0.06A0.073,0.073,0,0,1,83.247,31.34Zm-1.13.06h-0.14V31.28h0.14V31.4Zm15.42,0.14c0-.093-0.033-0.14-0.1-0.14s-0.1.047-.1,0.14,0.033,0.14.1,0.14S97.537,31.633,97.537,31.54Zm1.9,0.26h-0.26v0.28a2.817,2.817,0,0,0-.73.52,4.143,4.143,0,0,0-.48.6q-0.21.32-.41,0.67a4.99,4.99,0,0,1-.52.73,0.438,0.438,0,0,0,.14.02,0.515,0.515,0,0,0,.16-0.02,0.187,0.187,0,0,0,.1-0.12q0.22-.44.4-0.75a4.53,4.53,0,0,1,.39-0.57,2.875,2.875,0,0,1,.5-0.48q0.29-.22.71-0.48V31.8Zm-15.86,1.74a0.3,0.3,0,0,1-.16-0.26h0.16v0.26Zm3.84,0.53a0.1,0.1,0,1,0-.2,0c0,0.087.033,0.13,0.1,0.13S87.417,34.157,87.417,34.07Zm5.62,3.33h-2.66V34.6a0.8,0.8,0,0,0,.04-0.1,0.354,0.354,0,0,1,.1-0.16,0.164,0.164,0,0,1,.06-0.1,0.238,0.238,0,0,1,.06-0.04q0.04,0.02.15,0.09a0.4,0.4,0,0,1,.13.11h2.12v3Zm-2.92-1.54a0.2,0.2,0,0,1-.17-0.1,1.141,1.141,0,0,1-.12-0.22,1.68,1.68,0,0,1-.08-0.24,0.838,0.838,0,0,1-.03-0.16,0.29,0.29,0,0,1,.12-0.26,0.494,0.494,0,0,1,.28-0.08v1.06Zm3.86-.3a0.783,0.783,0,0,1-.29-0.07,0.227,0.227,0,0,1-.17-0.21h0.46v0.28ZM89.837,37a0.965,0.965,0,0,1-.15.2,0.332,0.332,0,0,1-.25.12V37h0.4Zm5.6,0.54a0.169,0.169,0,0,1,.15-0.13c0.073-.007.137-0.01,0.19-0.01a0.268,0.268,0,0,1,.31.14,2.027,2.027,0,0,1,.03.4q0,0.04.01,0.27a0.226,0.226,0,0,1-.15.27,0.7,0.7,0,0,1-.14-0.14Z"/>
</svg>
